<?xml version="1.0" encoding="UTF-8"?>
<svg version="1.1" xmlns="http://www.w3.org/2000/svg" width="88" height="88">
<path d="M0 0 C29.04 0 58.08 0 88 0 C88 29.04 88 58.08 88 88 C58.96 88 29.92 88 0 88 C0 58.96 0 29.92 0 0 Z " fill="#B79465" transform="translate(0,0)"/>
<path d="M0 0 C2.1640625 0.46484375 2.1640625 0.46484375 5.6015625 1.65234375 C6.0965625 3.13734375 6.0965625 3.13734375 6.6015625 4.65234375 C10.18484003 5.65451439 10.18484003 5.65451439 13.6015625 4.65234375 C13.6015625 25.44234375 13.6015625 46.23234375 13.6015625 67.65234375 C5.4959375 67.69359375 -2.6096875 67.73484375 -10.9609375 67.77734375 C-13.50756104 67.79555176 -16.05418457 67.81375977 -18.67797852 67.83251953 C-20.71109812 67.83836433 -22.74422008 67.84345992 -24.77734375 67.84765625 C-25.82112183 67.85788818 -26.8648999 67.86812012 -27.94030762 67.87866211 C-34.28757641 67.88017462 -39.63593406 67.53359547 -45.3984375 64.65234375 C-45.0684375 63.66234375 -44.7384375 62.67234375 -44.3984375 61.65234375 C-37.4684375 61.65234375 -30.5384375 61.65234375 -23.3984375 61.65234375 C-23.0684375 60.00234375 -22.7384375 58.35234375 -22.3984375 56.65234375 C-23.1821875 56.34296875 -23.9659375 56.03359375 -24.7734375 55.71484375 C-27.3984375 54.65234375 -27.3984375 54.65234375 -29.3984375 53.65234375 C-30.77391906 53.56925737 -32.15329546 53.54498359 -33.53125 53.5546875 C-34.33691406 53.55791016 -35.14257812 53.56113281 -35.97265625 53.56445312 C-36.81441406 53.57283203 -37.65617187 53.58121094 -38.5234375 53.58984375 C-39.79767578 53.59661133 -39.79767578 53.59661133 -41.09765625 53.60351562 C-43.19794659 53.61531501 -45.2982008 53.63325069 -47.3984375 53.65234375 C-47.3984375 51.67234375 -47.3984375 49.69234375 -47.3984375 47.65234375 C-44.4284375 47.65234375 -41.4584375 47.65234375 -38.3984375 47.65234375 C-37.5542437 43.67257299 -36.95156485 39.68227157 -36.3984375 35.65234375 C-38.7084375 35.65234375 -41.0184375 35.65234375 -43.3984375 35.65234375 C-44.5234375 30.90234375 -44.5234375 30.90234375 -43.3984375 28.65234375 C-41.7484375 28.65234375 -40.0984375 28.65234375 -38.3984375 28.65234375 C-38.0684375 29.64234375 -37.7384375 30.63234375 -37.3984375 31.65234375 C-35.0884375 30.66234375 -32.7784375 29.67234375 -30.3984375 28.65234375 C-30.32847603 26.13373093 -30.28890409 24.01380399 -31.0234375 21.58984375 C-31.3984375 19.65234375 -31.3984375 19.65234375 -30.8359375 17.52734375 C-28.79848655 14.86979903 -26.56702499 14.47893179 -23.3984375 13.65234375 C-23.3984375 12.99234375 -23.3984375 12.33234375 -23.3984375 11.65234375 C-21.73177083 9.98567708 -20.06510417 8.31901042 -18.3984375 6.65234375 C-17.39275508 4.98909974 -16.39178951 3.32298122 -15.3984375 1.65234375 C-10.64570633 -1.5161437 -5.52987804 -0.80156213 0 0 Z " fill="#856C4E" transform="translate(74.3984375,20.34765625)"/>
<path d="M0 0 C0 3.3 0 6.6 0 10 C-1.32 9.67 -2.64 9.34 -4 9 C-4 9.66 -4 10.32 -4 11 C-5.32 11 -6.64 11 -8 11 C-7.01 14.63 -6.02 18.26 -5 22 C-6.32 22.33 -7.64 22.66 -9 23 C-10.83953256 25.45271009 -11.04357986 26.62521321 -10.6875 29.6875 C-10.21715153 31.94160952 -10.21715153 31.94160952 -9 33 C-8.67 31.02 -8.34 29.04 -8 27 C-7.07767578 26.92652344 -7.07767578 26.92652344 -6.13671875 26.8515625 C-5.32847656 26.77679688 -4.52023437 26.70203125 -3.6875 26.625 C-2.88699219 26.55539063 -2.08648437 26.48578125 -1.26171875 26.4140625 C1.27224441 26.10435574 1.27224441 26.10435574 4 24 C5.07136051 21.69855891 6.07989717 19.3659787 7 17 C6.34 17 5.68 17 5 17 C5 15.68 5 14.36 5 13 C7.64 13 10.28 13 13 13 C14.20272819 15.40545638 14.10071472 16.94996953 14.0625 19.625 C14.05347656 20.44226563 14.04445313 21.25953125 14.03515625 22.1015625 C14.02355469 22.72804688 14.01195313 23.35453125 14 24 C14.66 24 15.32 24 16 24 C16.144375 25.134375 16.28875 26.26875 16.4375 27.4375 C16.61171478 30.80777201 16.61171478 30.80777201 18 32 C20.32817964 32.36760731 22.6618385 32.70241581 25 33 C25.17835515 37.54805635 24.99785435 40.8794254 23 45 C16.25 46.125 16.25 46.125 14 45 C14 46.98 14 48.96 14 51 C15.670625 50.7525 15.670625 50.7525 17.375 50.5 C25.32888455 49.54271832 31.77451588 49.2301822 39 53 C39 56 39 56 38 59 C27.605 59.495 27.605 59.495 17 60 C17.33 60.99 17.66 61.98 18 63 C20.31 63.33 22.62 63.66 25 64 C25 64.33 25 64.66 25 65 C12.46 65 -0.08 65 -13 65 C-13.04592698 57.97062093 -13.08574867 50.94176311 -13.10986328 43.91235352 C-13.11991686 41.52138504 -13.13356164 39.13042885 -13.15087891 36.73950195 C-13.1751551 33.3015642 -13.18648965 29.86378912 -13.1953125 26.42578125 C-13.20563507 25.35789871 -13.21595764 24.29001617 -13.22659302 23.18977356 C-13.22674408 22.18911362 -13.22689514 21.18845367 -13.22705078 20.1574707 C-13.231492 19.28032913 -13.23593323 18.40318756 -13.24050903 17.49946594 C-12.96765791 14.66388812 -12.26334575 12.54777675 -11 10 C-10.34 9.67 -9.68 9.34 -9 9 C-8.34444881 6.47266765 -8.34444881 6.47266765 -8 4 C-6.68 3.67 -5.36 3.34 -4 3 C-4 2.34 -4 1.68 -4 1 C-2 0 -2 0 0 0 Z " fill="#AC9B7E" transform="translate(13,23)"/>
<path d="M0 0 C2.6875 -0.3125 2.6875 -0.3125 5 0 C6.42357957 2.3976077 7.10010421 4.20840675 6.74609375 7.0078125 C5.81196848 10.19206341 5.0146338 12.35217884 2.15234375 14.1796875 C-1.45875073 15.59712646 -4.06269159 16 -8 16 C-8 19.3 -8 22.6 -8 26 C-7.34 26 -6.68 26 -6 26 C-6 27.98 -6 29.96 -6 32 C-4.78763672 31.98259766 -4.78763672 31.98259766 -3.55078125 31.96484375 C-2.48214844 31.95582031 -1.41351563 31.94679688 -0.3125 31.9375 C0.74324219 31.92589844 1.79898438 31.91429688 2.88671875 31.90234375 C5.72410262 31.99134575 8.2438919 32.35060162 11 33 C11 33.33 11 33.66 11 34 C6.05 34 1.1 34 -4 34 C-1.36 34.66 1.28 35.32 4 36 C3.67 36.99 3.34 37.98 3 39 C0.9375 39.6875 0.9375 39.6875 -1 40 C-1 40.66 -1 41.32 -1 42 C1.64 42.66 4.28 43.32 7 44 C7 42.35 7 40.7 7 39 C8.65 39 10.3 39 12 39 C12 43.29 12 47.58 12 52 C10.02 52.66 8.04 53.32 6 54 C5.505 54.99 5.505 54.99 5 56 C3.68 56 2.36 56 1 56 C1 56.66 1 57.32 1 58 C-4.38490641 58.91657981 -9.54230189 59.11138159 -15 59 C-15.33 58.34 -15.66 57.68 -16 57 C-15.67 56.34 -15.34 55.68 -15 55 C-15.66 54.67 -16.32 54.34 -17 54 C-17 52.68 -17 51.36 -17 50 C-17.00469206 47.89768759 -17.00469206 47.89768759 -18 46 C-21.18976724 43.89765341 -23.03465831 42.89507155 -26.875 43.3125 C-27.926875 43.6528125 -27.926875 43.6528125 -29 44 C-29.33 42.02 -29.66 40.04 -30 38 C-31.65 37.67 -33.3 37.34 -35 37 C-34.8125 35.1875 -34.8125 35.1875 -34 33 C-32.36935236 31.94228261 -30.69719127 30.94726954 -29 30 C-28.278125 29.278125 -27.55625 28.55625 -26.8125 27.8125 C-26.214375 27.214375 -25.61625 26.61625 -25 26 C-24.34 26 -23.68 26 -23 26 C-23.04125 24.824375 -23.0825 23.64875 -23.125 22.4375 C-23.00285649 14.78317337 -23.00285649 14.78317337 -21 11 C-17.44719485 9.48500784 -13.7666387 8.80008601 -10 8 C-4.83466542 6.4235065 -2.75941457 4.64083359 0 0 Z " fill="#A18A69" transform="translate(76,26)"/>
<path d="M0 0 C16.17 0 32.34 0 49 0 C49 8.25 49 16.5 49 25 C47.02 25.99 47.02 25.99 45 27 C44.2575 26.21625 43.515 25.4325 42.75 24.625 C38.26893314 20.80418695 32.66303014 20.61395311 27 20 C27.66 19.67 28.32 19.34 29 19 C29 18.01 29 17.02 29 16 C27.68 15.67 26.36 15.34 25 15 C24.67 12.03 24.34 9.06 24 6 C23.071875 5.855625 22.14375 5.71125 21.1875 5.5625 C18 5 18 5 15 4 C15 3.67 15 3.34 15 3 C13.87851562 3.12568359 13.87851562 3.12568359 12.734375 3.25390625 C11.74953125 3.35574219 10.7646875 3.45757812 9.75 3.5625 C8.77546875 3.66691406 7.8009375 3.77132813 6.796875 3.87890625 C4.2368648 3.98974468 2.41851841 3.77738092 0 3 C0 2.01 0 1.02 0 0 Z " fill="#A48153" transform="translate(39,0)"/>
<path d="M0 0 C5.94 0 11.88 0 18 0 C17.67 1.65 17.34 3.3 17 5 C15.02 5.66 13.04 6.32 11 7 C11 7.99 11 8.98 11 10 C12.32 10 13.64 10 15 10 C15 9.01 15 8.02 15 7 C15.66 7 16.32 7 17 7 C17 7.99 17 8.98 17 10 C17.99 10 18.98 10 20 10 C20 10.66 20 11.32 20 12 C17 14 17 14 15 15 C15 14.34 15 13.68 15 13 C14.01 13.495 14.01 13.495 13 14 C13 15.32 13 16.64 13 18 C13.66386719 18.01417969 14.32773438 18.02835938 15.01171875 18.04296875 C19.63328898 18.29260101 22.32987527 18.52697078 26.1875 21.25 C28 24 28 24 28 26.5 C25.92307692 31.69230769 25.92307692 31.69230769 24 34 C20.5 34.9375 20.5 34.9375 17 35 C16.01 34.34 15.02 33.68 14 33 C14 32.34 14 31.68 14 31 C13.34 31 12.68 31 12 31 C12.33 28.36 12.66 25.72 13 23 C11.68 23.33 10.36 23.66 9 24 C9 24.66 9 25.32 9 26 C7.68 26.33 6.36 26.66 5 27 C5 28.98 5 30.96 5 33 C3.515 33.495 3.515 33.495 2 34 C1.34 35.32 0.68 36.64 0 38 C0 25.46 0 12.92 0 0 Z " fill="#B79461" transform="translate(0,0)"/>
<path d="M0 0 C6.34833705 -0.23415997 11.95679072 -0.08765411 18 2 C18.33 2.99 18.66 3.98 19 5 C22.58327753 6.00217064 22.58327753 6.00217064 26 5 C26 18.2 26 31.4 26 45 C24.35 45 22.7 45 21 45 C21 46.65 21 48.3 21 50 C18.36 49.67 15.72 49.34 13 49 C13 47.68 13 46.36 13 45 C13.639375 44.87625 14.27875 44.7525 14.9375 44.625 C15.618125 44.41875 16.29875 44.2125 17 44 C17.33 43.34 17.66 42.68 18 42 C17.071875 42.061875 16.14375 42.12375 15.1875 42.1875 C12 42 12 42 9 39 C12.63 39 16.26 39 20 39 C16.04 38.67 12.08 38.34 8 38 C8 36.02 8 34.04 8 32 C7.34 32 6.68 32 6 32 C4.62344251 25.2701634 4.62344251 25.2701634 6 22 C7.9609375 20.98828125 7.9609375 20.98828125 10.375 20.3125 C11.16648437 20.08175781 11.95796875 19.85101563 12.7734375 19.61328125 C13.50820312 19.41089844 14.24296875 19.20851563 15 19 C15.99 18.67 16.98 18.34 18 18 C18.8458523 16.00079709 18.8458523 16.00079709 19.25 13.625 C19.42015625 12.83351563 19.5903125 12.04203125 19.765625 11.2265625 C20.17317222 8.82984509 20.17317222 8.82984509 19 6 C16.59122743 6.11341534 16.59122743 6.11341534 14 7 C12.30117552 9.49759982 12.30117552 9.49759982 11 12 C10.34 12 9.68 12 9 12 C9 11.34 9 10.68 9 10 C9.66 10 10.32 10 11 10 C11 8.68 11 7.36 11 6 C11.99 5.34 12.98 4.68 14 4 C9.13948404 1.40772482 4.34728867 1.81310447 -1 2 C-0.67 1.34 -0.34 0.68 0 0 Z " fill="#866941" transform="translate(62,20)"/>
<path d="M0 0 C-0.66 0.99 -1.32 1.98 -2 3 C-2.66 3 -3.32 3 -4 3 C-4 4.32 -4 5.64 -4 7 C-4.66 7 -5.32 7 -6 7 C-6 7.99 -6 8.98 -6 10 C-11.37180176 12.62875405 -16.04492601 13.6083965 -22 14 C-21.979375 14.969375 -21.95875 15.93875 -21.9375 16.9375 C-22 20 -22 20 -23 21 C-23.23075082 22.34747084 -23.41153063 23.70377565 -23.5625 25.0625 C-23.706875 26.361875 -23.85125 27.66125 -24 29 C-24.66 29 -25.32 29 -26 29 C-26.33 29.99 -26.66 30.98 -27 32 C-30.7645482 35.7645482 -33.74568665 36.58789699 -39 37 C-39 35.68 -39 34.36 -39 33 C-41.31 33 -43.62 33 -46 33 C-47.125 28.25 -47.125 28.25 -46 26 C-44.35 26 -42.7 26 -41 26 C-40.67 26.99 -40.34 27.98 -40 29 C-37.69 28.01 -35.38 27.02 -33 26 C-32.93003853 23.48138718 -32.89046659 21.36146024 -33.625 18.9375 C-34 17 -34 17 -33.4375 14.875 C-31.40004905 12.21745528 -29.16858749 11.82658804 -26 11 C-26 10.34 -26 9.68 -26 9 C-24.33333333 7.33333333 -22.66666667 5.66666667 -21 4 C-20.484375 3.0925 -19.96875 2.185 -19.4375 1.25 C-18 -1 -18 -1 -16.3125 -1.8125 C-10.26463732 -2.30286724 -5.68795082 -2.27518033 0 0 Z " fill="#815F3B" transform="translate(77,23)"/>
<path d="M0 0 C2.6875 -0.3125 2.6875 -0.3125 5 0 C6.42357957 2.3976077 7.10010421 4.20840675 6.74609375 7.0078125 C5.81196848 10.19206341 5.0146338 12.35217884 2.15234375 14.1796875 C-1.45875073 15.59712646 -4.06269159 16 -8 16 C-7.8559912 17.66682531 -7.70968156 19.33345185 -7.5625 21 C-7.47484375 22.00289062 -7.3871875 23.00578125 -7.296875 24.0390625 C-7.04924967 26.50879932 -6.70655949 28.92620176 -6.3125 31.375 C-5.99665028 35.03885679 -6.18200229 36.84242503 -8 40 C-10.70879335 41.35439668 -13.00933268 41.06501451 -16 41 C-16.33 38.69 -16.66 36.38 -17 34 C-19.31 33.67 -21.62 33.34 -24 33 C-23.71125 32.34 -23.4225 31.68 -23.125 31 C-21.76533571 27.37422856 -20.91082634 23.76474885 -20 20 C-19.67 19.01 -19.34 18.02 -19 17 C-18.34 17 -17.68 17 -17 17 C-17 14.69 -17 12.38 -17 10 C-16.32453125 9.80664062 -15.6490625 9.61328125 -14.953125 9.4140625 C-14.06109375 9.15367188 -13.1690625 8.89328125 -12.25 8.625 C-11.36828125 8.36976562 -10.4865625 8.11453125 -9.578125 7.8515625 C-4.64208916 6.29441872 -4.64208916 6.29441872 -1.5625 2.375 C-1.046875 1.59125 -0.53125 0.8075 0 0 Z " fill="#B9986E" transform="translate(76,26)"/>
<path d="M0 0 C2.97 0 5.94 0 9 0 C9.91657981 5.38490641 10.11138159 10.54230189 10 16 C10.99 16.33 11.98 16.66 13 17 C13 13.37 13 9.74 13 6 C13.66 6 14.32 6 15 6 C17.42857143 12.28571429 17.42857143 12.28571429 16 16 C17.98 16.33 19.96 16.66 22 17 C21.67 18.98 21.34 20.96 21 23 C21.99 23.33 22.98 23.66 24 24 C23.01 24 22.02 24 21 24 C21.33 24.99 21.66 25.98 22 27 C22.99 27.33 23.98 27.66 25 28 C25 28.99 25 29.98 25 31 C23.68 31.33 22.36 31.66 21 32 C20.67 34.31 20.34 36.62 20 39 C19.34 39 18.68 39 18 39 C18 38.34 18 37.68 18 37 C17.071875 36.9071875 17.071875 36.9071875 16.125 36.8125 C14 36 14 36 12.9375 33.8125 C11.42915111 29.28745332 10.79277589 24.70002848 10 20 C4.72 19.67 -0.56 19.34 -6 19 C-6 17.35 -6 15.7 -6 14 C-5.01 13.67 -4.02 13.34 -3 13 C-2.67 13.33 -2.34 13.66 -2 14 C-1.67 13.34 -1.34 12.68 -1 12 C-0.01 12 0.98 12 2 12 C2 11.34 2 10.68 2 10 C1.01 10 0.02 10 -1 10 C-1 9.01 -1 8.02 -1 7 C-1.66 7 -2.32 7 -3 7 C-3 7.99 -3 8.98 -3 10 C-4.32 10 -5.64 10 -7 10 C-7 9.01 -7 8.02 -7 7 C-4 5 -4 5 -1 5 C-0.67 3.35 -0.34 1.7 0 0 Z " fill="#BE9B6B" transform="translate(18,0)"/>
<path d="M0 0 C1.98 0 3.96 0 6 0 C6.17835515 4.54805635 5.99785435 7.8794254 4 12 C-2.75 13.125 -2.75 13.125 -5 12 C-5 13.98 -5 15.96 -5 18 C-3.329375 17.7525 -3.329375 17.7525 -1.625 17.5 C6.32888455 16.54271832 12.77451588 16.2301822 20 20 C20 23 20 23 19 26 C8.605 26.495 8.605 26.495 -2 27 C-1.67 27.99 -1.34 28.98 -1 30 C1.31 30.33 3.62 30.66 6 31 C6 31.33 6 31.66 6 32 C-1.92 32 -9.84 32 -18 32 C-19 27 -19 27 -18 24 C-15.36 24 -12.72 24 -10 24 C-10 23.34 -10 22.68 -10 22 C-9.01 21.34 -8.02 20.68 -7 20 C-7.33 19.01 -7.66 18.02 -8 17 C-8.66 16.67 -9.32 16.34 -10 16 C-10 15.01 -10 14.02 -10 13 C-7.72680994 10.91624245 -5.58968505 9.28641845 -2.8125 7.9375 C-0.65490148 7.00690197 -0.65490148 7.00690197 1 4 C0.69159401 1.84725052 0.69159401 1.84725052 0 0 Z " fill="#A48F70" transform="translate(32,56)"/>
<path d="M0 0 C0.99 0 1.98 0 3 0 C3 0.66 3 1.32 3 2 C5.64 2.33 8.28 2.66 11 3 C11 3.99 11 4.98 11 6 C11.66 6.33 12.32 6.66 13 7 C12.67 7.99 12.34 8.98 12 10 C12.66 10 13.32 10 14 10 C14 9.34 14 8.68 14 8 C14.99 8 15.98 8 17 8 C17 9.32 17 10.64 17 12 C17.37125 11.484375 17.7425 10.96875 18.125 10.4375 C20 9 20 9 22.78125 9.1015625 C26.80155564 10.22373519 28.50799671 11.93704761 31.375 14.9375 C32.68597656 16.28134766 32.68597656 16.28134766 34.0234375 17.65234375 C36 20 36 20 36 22 C36.99 22.33 37.98 22.66 39 23 C37.68 23 36.36 23 35 23 C35 23.66 35 24.32 35 25 C29.61509359 25.91657981 24.45769811 26.11138159 19 26 C18.67 25.34 18.34 24.68 18 24 C18.33 23.34 18.66 22.68 19 22 C18.34 21.67 17.68 21.34 17 21 C17 19.68 17 18.36 17 17 C16.99530794 14.89768759 16.99530794 14.89768759 16 13 C12.81023276 10.89765341 10.96534169 9.89507155 7.125 10.3125 C6.073125 10.6528125 6.073125 10.6528125 5 11 C4.67 9.02 4.34 7.04 4 5 C2.35 4.67 0.7 4.34 -1 4 C-0.67 2.68 -0.34 1.36 0 0 Z " fill="#947B5D" transform="translate(42,59)"/>
<path d="M0 0 C3.27642756 0.25866533 4.60820723 0.55416685 6.8125 3.0625 C7.204375 3.701875 7.59625 4.34125 8 5 C6.68 5.33 5.36 5.66 4 6 C4 6.99 4 7.98 4 9 C2.5 10.6875 2.5 10.6875 1 12 C1.66 12 2.32 12 3 12 C3 11.34 3 10.68 3 10 C4.32 10.33 5.64 10.66 7 11 C6.01 11.66 5.02 12.32 4 13 C2.62546785 15.31952301 1.29885737 17.63988111 0 20 C-2.35854292 23.96664036 -4.56975705 24.81860188 -9 26 C-9.38133299 27.9914056 -9.71325582 29.99279077 -10 32 C-9.67 32.33 -9.34 32.66 -9 33 C-8.6875 35.375 -8.6875 35.375 -9 38 C-10.75 39.8125 -10.75 39.8125 -13 41 C-14.32 41 -15.64 41 -17 41 C-17 40.34 -17 39.68 -17 39 C-15.68 38.34 -14.36 37.68 -13 37 C-13.99 36.34 -14.98 35.68 -16 35 C-15.79920119 32.87213201 -15.56342937 30.74754018 -15.3125 28.625 C-15.18488281 27.44164063 -15.05726562 26.25828125 -14.92578125 25.0390625 C-14 22 -14 22 -11.41796875 20.5859375 C-10.62003906 20.39257812 -9.82210937 20.19921875 -9 20 C-9.0825 18.7625 -9.165 17.525 -9.25 16.25 C-9.26160446 12.97754309 -9.17256333 12.23008445 -7.125 9.5 C-5 8 -5 8 -3 8 C-2.690625 6.865625 -2.38125 5.73125 -2.0625 4.5625 C-1 1 -1 1 0 0 Z " fill="#B08C5D" transform="translate(54,11)"/>
<path d="M0 0 C0 1.65 0 3.3 0 5 C-2.93843852 6.46921926 -5.75397821 6 -9 6 C-9.33 6.33 -9.66 6.66 -10 7 C-8.35 7.33 -6.7 7.66 -5 8 C-5 8.99 -5 9.98 -5 11 C-5.99 11.495 -5.99 11.495 -7 12 C-6.01 12.66 -5.02 13.32 -4 14 C-3.57084996 18.54899046 -4.00829218 21.89210262 -6 26 C-8.97 26 -11.94 26 -15 26 C-15 18.74 -15 11.48 -15 4 C-13.35 3.67 -11.7 3.34 -10 3 C-10 2.34 -10 1.68 -10 1 C-6.59437148 0.22157062 -3.49234244 -0.09978121 0 0 Z " fill="#A19073" transform="translate(15,62)"/>
<path d="M0 0 C0.66 0 1.32 0 2 0 C4.42857143 6.28571429 4.42857143 6.28571429 3 10 C5.97 10.495 5.97 10.495 9 11 C8.67 12.98 8.34 14.96 8 17 C8.99 17.33 9.98 17.66 11 18 C10.01 18 9.02 18 8 18 C8.33 18.99 8.66 19.98 9 21 C9.99 21.33 10.98 21.66 12 22 C12 22.99 12 23.98 12 25 C10.68 25.33 9.36 25.66 8 26 C7.67 28.31 7.34 30.62 7 33 C6.34 33 5.68 33 5 33 C5 32.34 5 31.68 5 31 C4.071875 30.9071875 4.071875 30.9071875 3.125 30.8125 C1 30 1 30 -0.125 27.9375 C-3 18.28571429 -3 18.28571429 -3 13 C-2.34 13 -1.68 13 -1 13 C-0.83147753 11.39602723 -0.66525114 9.7918131 -0.5 8.1875 C-0.4071875 7.29417969 -0.314375 6.40085937 -0.21875 5.48046875 C0.04392401 2.91694901 0.04392401 2.91694901 0 0 Z " fill="#D6B37F" transform="translate(31,6)"/>
<path d="M0 0 C1.65 0 3.3 0 5 0 C5.28875 0.78375 5.5775 1.5675 5.875 2.375 C6.84912254 5.09671632 6.84912254 5.09671632 9 7 C9 7.99 9 8.98 9 10 C9.66 10.33 10.32 10.66 11 11 C8.08922107 13.91077893 5.2942347 13.4247538 1.3125 13.65625 C-1.19075583 13.79378679 -1.19075583 13.79378679 -3 16 C-3.99 16 -4.98 16 -6 16 C-6.33 15.01 -6.66 14.02 -7 13 C-7.66 12.67 -8.32 12.34 -9 12 C-9 10.68 -9 9.36 -9 8 C-9.99 8 -10.98 8 -12 8 C-12 6.35 -12 4.7 -12 3 C-8.535 2.505 -8.535 2.505 -5 2 C-5 2.66 -5 3.32 -5 4 C-3.68 4 -2.36 4 -1 4 C-0.67 2.68 -0.34 1.36 0 0 Z " fill="#CBB996" transform="translate(23,49)"/>
<path d="M0 0 C0.33 0.99 0.66 1.98 1 3 C1.804375 2.505 2.60875 2.01 3.4375 1.5 C7.82002454 -0.34527349 11.32315231 -0.28061086 16 0 C13.34225943 3.98661086 10.50082432 5.49972523 6 7 C6 7.99 6 8.98 6 10 C6.99 10.33 7.98 10.66 9 11 C9.6875 13.0625 9.6875 13.0625 10 15 C8.68 15.33 7.36 15.66 6 16 C6 16.66 6 17.32 6 18 C3.36 18 0.72 18 -2 18 C-2 20.64 -2 23.28 -2 26 C-3.65 26 -5.3 26 -7 26 C-6.34 20.72 -5.68 15.44 -5 10 C-3.35 10 -1.7 10 0 10 C0 6.7 0 3.4 0 0 Z " fill="#B4A285" transform="translate(16,62)"/>
<path d="M0 0 C-0.99 1.485 -0.99 1.485 -2 3 C-2.66 3 -3.32 3 -4 3 C-4 4.32 -4 5.64 -4 7 C-4.66 7 -5.32 7 -6 7 C-6 7.99 -6 8.98 -6 10 C-7.55966592 10.36644578 -9.12292651 10.71760862 -10.6875 11.0625 C-11.55761719 11.25972656 -12.42773438 11.45695312 -13.32421875 11.66015625 C-16.16001276 12.02032279 -18.24789982 11.70909969 -21 11 C-21.29058436 6.0600659 -21.21320034 2.90174327 -18 -1 C-12.52262158 -3.63725628 -5.3711663 -2.14846652 0 0 Z " fill="#2E2512" transform="translate(77,23)"/>
<path d="M0 0 C3.1875 2.1875 3.1875 2.1875 5 5 C5 8.8975099 3.47651844 12.02817787 1 15 C-2.5 15.9375 -2.5 15.9375 -6 16 C-6.99 15.34 -7.98 14.68 -9 14 C-9 13.34 -9 12.68 -9 12 C-9.66 12 -10.32 12 -11 12 C-10.67 9.03 -10.34 6.06 -10 3 C-10.99 2.67 -11.98 2.34 -13 2 C-8.76050116 -0.82633256 -4.97683787 -0.77540558 0 0 Z " fill="#A4865F" transform="translate(23,19)"/>
<path d="M0 0 C0.66 0 1.32 0 2 0 C2 1.98 2 3.96 2 6 C3.21236328 5.98259766 3.21236328 5.98259766 4.44921875 5.96484375 C6.05216797 5.95130859 6.05216797 5.95130859 7.6875 5.9375 C8.74324219 5.92589844 9.79898438 5.91429687 10.88671875 5.90234375 C13.72410262 5.99134575 16.2438919 6.35060162 19 7 C19 7.33 19 7.66 19 8 C14.05 8 9.1 8 4 8 C6.64 8.66 9.28 9.32 12 10 C11.67 10.99 11.34 11.98 11 13 C8.9375 13.6875 8.9375 13.6875 7 14 C7 14.66 7 15.32 7 16 C9.64 16.66 12.28 17.32 15 18 C15 16.35 15 14.7 15 13 C16.65 13 18.3 13 20 13 C20 17.29 20 21.58 20 26 C17.69 26.66 15.38 27.32 13 28 C13.33 27.01 13.66 26.02 14 25 C15.32 24.67 16.64 24.34 18 24 C15.69 22.35 13.38 20.7 11 19 C9.55245745 20.44754255 9.44266439 22.03962913 9 24 C8.01 23.34 7.02 22.68 6 22 C6 21.34 6 20.68 6 20 C5.34 20 4.68 20 4 20 C4 19.34 4 18.68 4 18 C3.360625 17.71125 2.72125 17.4225 2.0625 17.125 C0 16 0 16 -1 14 C-0.67 13.13375 -0.34 12.2675 0 11.375 C1.26901611 7.09207062 0.75361783 4.37098344 0 0 Z " fill="#917957" transform="translate(68,52)"/>
<path d="M0 0 C16.17 0 32.34 0 49 0 C49 2.31 49 4.62 49 7 C47.68 6.67 46.36 6.34 45 6 C45 5.34 45 4.68 45 4 C41.7 4 38.4 4 35 4 C35 3.01 35 2.02 35 1 C34.34 1 33.68 1 33 1 C32.67 2.32 32.34 3.64 32 5 C31.10796875 4.91621094 30.2159375 4.83242187 29.296875 4.74609375 C28.12640625 4.64425781 26.9559375 4.54242187 25.75 4.4375 C24.58984375 4.33308594 23.4296875 4.22867187 22.234375 4.12109375 C19.48128523 4.01801913 17.580018 4.13786527 15 5 C15 4.34 15 3.68 15 3 C13.87851562 3.12568359 13.87851562 3.12568359 12.734375 3.25390625 C11.74953125 3.35574219 10.7646875 3.45757812 9.75 3.5625 C8.77546875 3.66691406 7.8009375 3.77132813 6.796875 3.87890625 C4.2368648 3.98974468 2.41851841 3.77738092 0 3 C0 2.01 0 1.02 0 0 Z " fill="#A07F4E" transform="translate(39,0)"/>
<path d="M0 0 C2.64 0 5.28 0 8 0 C9.20272819 2.40545638 9.10071472 3.94996953 9.0625 6.625 C9.05347656 7.44226562 9.04445313 8.25953125 9.03515625 9.1015625 C9.02355469 9.72804688 9.01195313 10.35453125 9 11 C9.66 11 10.32 11 11 11 C11 12.98 11 14.96 11 17 C10.67 15.68 10.34 14.36 10 13 C8.35 13.33 6.7 13.66 5 14 C4.67 14.99 4.34 15.98 4 17 C2.68 17 1.36 17 0 17 C0 16.34 0 15.68 0 15 C-2.31 15.33 -4.62 15.66 -7 16 C-7 17.32 -7 18.64 -7 20 C-8.65 20.33 -10.3 20.66 -12 21 C-11.505 19.515 -11.505 19.515 -11 18 C-11.38932856 15.85744207 -11.38932856 15.85744207 -12 14 C-11.32453125 13.9484375 -10.6490625 13.896875 -9.953125 13.84375 C-4.54386256 13.29193614 -4.54386256 13.29193614 -0.4453125 10.0859375 C0.52558177 8.08036759 1.33743174 6.12615188 2 4 C1.34 4 0.68 4 0 4 C0 2.68 0 1.36 0 0 Z " fill="#CDA46F" transform="translate(18,36)"/>
<path d="M0 0 C1.65 0 3.3 0 5 0 C6.42357957 2.3976077 7.10010421 4.20840675 6.74609375 7.0078125 C5.81196848 10.19206341 5.0146338 12.35217884 2.15234375 14.1796875 C-1.45875073 15.59712646 -4.06269159 16 -8 16 C-8 19.3 -8 22.6 -8 26 C-10.97 26.33 -13.94 26.66 -17 27 C-17.33 26.01 -17.66 25.02 -18 24 C-16.35 24 -14.7 24 -13 24 C-13.04125 22.88625 -13.0825 21.7725 -13.125 20.625 C-13 17 -13 17 -11 15 C-10.01 15 -9.02 15 -8 15 C-8 13.68 -8 12.36 -8 11 C-7.030625 10.71125 -6.06125 10.4225 -5.0625 10.125 C-1.89335797 9.35785318 -1.89335797 9.35785318 -1 7 C1.5625 6.375 1.5625 6.375 4 6 C3.67 4.35 3.34 2.7 3 1 C2.34 1 1.68 1 1 1 C1 1.66 1 2.32 1 3 C0.34 3 -0.32 3 -1 3 C-0.67 2.01 -0.34 1.02 0 0 Z " fill="#AC8B5B" transform="translate(76,26)"/>
<path d="M0 0 C0.875 1.75 0.875 1.75 1 4 C-0.73836486 6.76850699 -2.01526083 8.58223187 -5.0625 9.875 C-7 10 -7 10 -10 9 C-10 9.66 -10 10.32 -10 11 C-8.68 11.33 -7.36 11.66 -6 12 C-6.66 12 -7.32 12 -8 12 C-8 12.99 -8 13.98 -8 15 C-6.700625 14.2575 -6.700625 14.2575 -5.375 13.5 C-1.89250377 11.9522239 0.24759458 11.73197104 4 12 C4 12.99 4 13.98 4 15 C4.99 15.33 5.98 15.66 7 16 C7 16.99 7 17.98 7 19 C1.72 18.67 -3.56 18.34 -9 18 C-9 16.02 -9 14.04 -9 12 C-9.66 12 -10.32 12 -11 12 C-12.37690308 5.26847382 -12.37690308 5.26847382 -11 2 C-9.00390625 0.91796875 -9.00390625 0.91796875 -6.5625 0.1875 C-5.75941406 -0.06644531 -4.95632812 -0.32039063 -4.12890625 -0.58203125 C-2 -1 -2 -1 0 0 Z " fill="#907147" transform="translate(79,40)"/>
<path d="M0 0 C0 3.3 0 6.6 0 10 C-12.54 10 -25.08 10 -38 10 C-37.34 9.01 -36.68 8.02 -36 7 C-34.68 7.66 -33.36 8.32 -32 9 C-32 8.34 -32 7.68 -32 7 C-21.605 6.505 -21.605 6.505 -11 6 C-11 5.34 -11 4.68 -11 4 C-9.68 4 -8.36 4 -7 4 C-6.67 3.01 -6.34 2.02 -6 1 C-3 0 -3 0 0 0 Z " fill="#6A5230" transform="translate(88,78)"/>
<path d="M0 0 C6.51791392 -0.3540919 11.17521449 -0.03901852 17 3 C17 6 17 6 16 9 C5.605 9.495 5.605 9.495 -5 10 C-4.67 10.99 -4.34 11.98 -4 13 C-1.69 13.33 0.62 13.66 3 14 C3 14.33 3 14.66 3 15 C-2.61 15 -8.22 15 -14 15 C-14.33 13.68 -14.66 12.36 -15 11 C-13.8553125 10.5978125 -13.8553125 10.5978125 -12.6875 10.1875 C-10.09503074 9.04199033 -8.91184456 8.00288478 -7 6 C-6.34 6 -5.68 6 -5 6 C-5 6.66 -5 7.32 -5 8 C-3.56208484 7.85831863 -2.1246763 7.71148957 -0.6875 7.5625 C0.11300781 7.48128906 0.91351563 7.40007812 1.73828125 7.31640625 C4.16087179 7.04734307 4.16087179 7.04734307 7 6 C7 6.66 7 7.32 7 8 C7.66 8 8.32 8 9 8 C9 7.34 9 6.68 9 6 C10.32 5.67 11.64 5.34 13 5 C11.68 4.34 10.36 3.68 9 3 C9 2.34 9 1.68 9 1 C6.03 1 3.06 1 0 1 C0 0.67 0 0.34 0 0 Z " fill="#8E7958" transform="translate(35,73)"/>
<path d="M0 0 C1.23556641 0.01740234 1.23556641 0.01740234 2.49609375 0.03515625 C3.32238281 0.04417969 4.14867188 0.05320313 5 0.0625 C5.63808594 0.07410156 6.27617188 0.08570313 6.93359375 0.09765625 C6.93359375 0.75765625 6.93359375 1.41765625 6.93359375 2.09765625 C8.25359375 2.42765625 9.57359375 2.75765625 10.93359375 3.09765625 C10.93359375 7.05765625 10.93359375 11.01765625 10.93359375 15.09765625 C10.27359375 15.09765625 9.61359375 15.09765625 8.93359375 15.09765625 C8.93359375 15.75765625 8.93359375 16.41765625 8.93359375 17.09765625 C6.45859375 16.10765625 6.45859375 16.10765625 3.93359375 15.09765625 C3.93359375 14.10765625 3.93359375 13.11765625 3.93359375 12.09765625 C4.59359375 12.09765625 5.25359375 12.09765625 5.93359375 12.09765625 C5.93359375 11.43765625 5.93359375 10.77765625 5.93359375 10.09765625 C3.29359375 9.43765625 0.65359375 8.77765625 -2.06640625 8.09765625 C-1.40640625 6.11765625 -0.74640625 4.13765625 -0.06640625 2.09765625 C-1.05640625 1.76765625 -2.04640625 1.43765625 -3.06640625 1.09765625 C-2.06640625 0.09765625 -2.06640625 0.09765625 0 0 Z " fill="#A78A60" transform="translate(77.06640625,3.90234375)"/>
<path d="M0 0 C0 3.3 0 6.6 0 10 C-1.32 9.67 -2.64 9.34 -4 9 C-4 9.66 -4 10.32 -4 11 C-5.32 11 -6.64 11 -8 11 C-7.01 14.63 -6.02 18.26 -5 22 C-7.66666667 22.66666667 -10.33333333 23.33333333 -13 24 C-13.38289206 14.23625255 -13.38289206 14.23625255 -11 10 C-10.34 9.67 -9.68 9.34 -9 9 C-8.34444881 6.47266765 -8.34444881 6.47266765 -8 4 C-6.68 3.67 -5.36 3.34 -4 3 C-4 2.34 -4 1.68 -4 1 C-2 0 -2 0 0 0 Z " fill="#CDA877" transform="translate(13,23)"/>
<path d="M0 0 C1.65 0 3.3 0 5 0 C3.68 0.33 2.36 0.66 1 1 C1.33 1.99 1.66 2.98 2 4 C1.44140625 6.48046875 1.44140625 6.48046875 0.5625 9.1875 C0.27503906 10.08855469 -0.01242188 10.98960938 -0.30859375 11.91796875 C-0.53675781 12.60503906 -0.76492187 13.29210938 -1 14 C0.32 14.33 1.64 14.66 3 15 C2.01 16.485 2.01 16.485 1 18 C-1.97 17.67 -4.94 17.34 -8 17 C-8.33 18.65 -8.66 20.3 -9 22 C-9.33 22 -9.66 22 -10 22 C-10 19.69 -10 17.38 -10 15 C-10.66 15 -11.32 15 -12 15 C-12 12.69 -12 10.38 -12 8 C-11.01 8.495 -11.01 8.495 -10 9 C-10 9.66 -10 10.32 -10 11 C-9.01 11 -8.02 11 -7 11 C-7 11.99 -7 12.98 -7 14 C-6.01 14.33 -5.02 14.66 -4 15 C-4.46245942 12.41022723 -4.97245465 11.03496141 -6.625 8.9375 C-7.07875 8.298125 -7.5325 7.65875 -8 7 C-7.67 6.01 -7.34 5.02 -7 4 C-5.68 4.33 -4.36 4.66 -3 5 C-3 5.66 -3 6.32 -3 7 C-2.34 7 -1.68 7 -1 7 C-1.33 6.01 -1.66 5.02 -2 4 C-1.0625 1.8125 -1.0625 1.8125 0 0 Z " fill="#C09363" transform="translate(39,32)"/>
<path d="M0 0 C0.66 0 1.32 0 2 0 C2 0.66 2 1.32 2 2 C2.886875 1.814375 3.77375 1.62875 4.6875 1.4375 C7.85178811 1.01957516 9.94839642 1.19222258 13 2 C13 5.3 13 8.6 13 12 C10.29120665 13.35439668 7.99066732 13.06501451 5 13 C4.67 10.69 4.34 8.38 4 6 C1.69 5.67 -0.62 5.34 -3 5 C-1.125 1.125 -1.125 1.125 0 0 Z " fill="#B69E7E" transform="translate(55,54)"/>
<path d="M0 0 C0.99 0 1.98 0 3 0 C5.17359516 5.12347431 7.10861491 9.93631667 6.8125 15.5625 C7.0696814 20.27749233 8.75918397 21.67816357 12 25 C11.34 25 10.68 25 10 25 C10 25.66 10 26.32 10 27 C8.68 26.67 7.36 26.34 6 26 C6.33 25.01 6.66 24.02 7 23 C6.01 23 5.02 23 4 23 C3.30289269 21.71349294 2.61757124 20.42059335 1.9375 19.125 C1.55464844 18.40570313 1.17179687 17.68640625 0.77734375 16.9453125 C0.39255859 15.98238281 0.39255859 15.98238281 0 15 C0.33 14.34 0.66 13.68 1 13 C0.34 12.67 -0.32 12.34 -1 12 C-0.484375 11.443125 0.03125 10.88625 0.5625 10.3125 C2.27060758 8.08723079 2.27060758 8.08723079 1.75 5.4375 C1.19004371 3.61764204 0.60211577 1.80634732 0 0 Z " fill="#B68659" transform="translate(25,20)"/>
<path d="M0 0 C0.66 0 1.32 0 2 0 C2 0.99 2 1.98 2 3 C2.99 3.33 3.98 3.66 5 4 C7.42945561 7.64418341 7.0828781 8.92923364 6.625 13.1875 C6.51414062 14.27417969 6.40328125 15.36085938 6.2890625 16.48046875 C6.14597656 17.72763672 6.14597656 17.72763672 6 19 C4.02 19 2.04 19 0 19 C0 12.73 0 6.46 0 0 Z " fill="#736E5F" transform="translate(0,69)"/>
<path d="M0 0 C3.24208567 0.35049575 4.61527704 0.56221181 6.8125 3.0625 C7.204375 3.701875 7.59625 4.34125 8 5 C6.68 5.33 5.36 5.66 4 6 C4 6.99 4 7.98 4 9 C3.030625 9.37125 2.06125 9.7425 1.0625 10.125 C-2.305813 11.69308727 -2.305813 11.69308727 -2.75 15.0625 C-2.8325 16.031875 -2.915 17.00125 -3 18 C-3.66 18.66 -4.32 19.32 -5 20 C-5.99 18.35 -6.98 16.7 -8 15 C-7.4225 14.195625 -6.845 13.39125 -6.25 12.5625 C-3.60893607 8.62920121 -1.82084068 4.35839524 0 0 Z " fill="#AF8B5F" transform="translate(54,11)"/>
<path d="M0 0 C2.8125 -0.25 2.8125 -0.25 6 0 C7.9375 1.6875 7.9375 1.6875 9 4 C8.80697424 7.86051522 7.47512452 10.09441905 5 13 C0.25 12.25 0.25 12.25 -2 10 C-1.625 7.375 -1.625 7.375 -1 5 C-0.01 5 0.98 5 2 5 C2 4.01 2 3.02 2 2 C1.34 2 0.68 2 0 2 C0 1.34 0 0.68 0 0 Z " fill="#3E3520" transform="translate(19,20)"/>
<path d="M0 0 C1.27875 0.2475 2.5575 0.495 3.875 0.75 C4.95394531 0.95882813 4.95394531 0.95882813 6.0546875 1.171875 C8 2 8 2 9.28125 3.78125 C10.12020945 6.37108134 10.01938297 8.06819578 9.625 10.75 C9.45871094 11.94882812 9.45871094 11.94882812 9.2890625 13.171875 C9.14597656 14.07679687 9.14597656 14.07679687 9 15 C6.03 14.505 6.03 14.505 3 14 C2.67 10.7 2.34 7.4 2 4 C1.34 4 0.68 4 0 4 C0.20625 5.258125 0.4125 6.51625 0.625 7.8125 C1.21335669 11.4014758 1.16617415 11.75073878 -1 15 C-1.02703381 13.06257659 -1.04641125 11.12504521 -1.0625 9.1875 C-1.07410156 8.10855469 -1.08570312 7.02960937 -1.09765625 5.91796875 C-1 3 -1 3 0 0 Z " fill="#C09F6D" transform="translate(31,2)"/>
<path d="M0 0 C5.61 0 11.22 0 17 0 C17 1.98 17 3.96 17 6 C15.35 6 13.7 6 12 6 C12 7.65 12 9.3 12 11 C9.36 10.67 6.72 10.34 4 10 C4 8.68 4 7.36 4 6 C4.639375 5.87625 5.27875 5.7525 5.9375 5.625 C6.618125 5.41875 7.29875 5.2125 8 5 C8.33 4.34 8.66 3.68 9 3 C8.071875 3.061875 7.14375 3.12375 6.1875 3.1875 C3 3 3 3 0 0 Z " fill="#957B55" transform="translate(71,59)"/>
<path d="M0 0 C4.62 0 9.24 0 14 0 C14 0.66 14 1.32 14 2 C16.475 2.495 16.475 2.495 19 3 C18.67 3.66 18.34 4.32 18 5 C16.68 5 15.36 5 14 5 C14 5.66 14 6.32 14 7 C13.34 7 12.68 7 12 7 C12 6.34 12 5.68 12 5 C11.01 5.66 10.02 6.32 9 7 C7.1875 6.75 7.1875 6.75 5 6 C3.9275 5.649375 2.855 5.29875 1.75 4.9375 C0.8425 4.628125 -0.065 4.31875 -1 4 C-0.67 2.68 -0.34 1.36 0 0 Z " fill="#AA9176" transform="translate(30,74)"/>
<path d="M0 0 C1.65 0 3.3 0 5 0 C5.3125 2.25 5.3125 2.25 5 5 C1.41232454 8.91382777 -1.80911501 9.59287177 -7 10 C-7 8.68 -7 7.36 -7 6 C-8.65 6 -10.3 6 -12 6 C-12.66 4.68 -13.32 3.36 -14 2 C-9.71 2.66 -5.42 3.32 -1 4 C-0.67 2.68 -0.34 1.36 0 0 Z " fill="#7B4F34" transform="translate(45,50)"/>
<path d="M0 0 C0.66 0.99 1.32 1.98 2 3 C1.67 3.66 1.34 4.32 1 5 C3.475 5.99 3.475 5.99 6 7 C6 7.99 6 8.98 6 10 C5.01 10 4.02 10 3 10 C3.66 11.98 4.32 13.96 5 16 C3.68 16 2.36 16 1 16 C1 15.34 1 14.68 1 14 C0.01 13.67 -0.98 13.34 -2 13 C-3.34256953 8.68964518 -4 5.52218352 -4 1 C-2.68 0.67 -1.36 0.34 0 0 Z " fill="#D3B387" transform="translate(32,18)"/>
<path d="M0 0 C1 3 1 3 0.4375 5.5625 C0.293125 6.366875 0.14875 7.17125 0 8 C0.66 8.66 1.32 9.32 2 10 C2.33 8.02 2.66 6.04 3 4 C6 7.75 6 7.75 6 10 C7.32 10.33 8.64 10.66 10 11 C9.67 11.99 9.34 12.98 9 14 C4.99014868 15.73152671 2.46580629 16 -2 16 C-2 11.05 -2 6.1 -2 1 C-1.34 0.67 -0.68 0.34 0 0 Z " fill="#B79F76" transform="translate(2,46)"/>
<path d="M0 0 C6.27 0 12.54 0 19 0 C19 2.31 19 4.62 19 7 C17.68 6.67 16.36 6.34 15 6 C15 5.34 15 4.68 15 4 C11.7 4 8.4 4 5 4 C5 3.01 5 2.02 5 1 C4.34 1 3.68 1 3 1 C2.67 2.32 2.34 3.64 2 5 C1.01 4.67 0.02 4.34 -1 4 C-0.67 2.68 -0.34 1.36 0 0 Z " fill="#93774E" transform="translate(69,0)"/>
<path d="M0 0 C0.99 0.33 1.98 0.66 3 1 C3.95912493 4.75544692 3.95076397 7.47184703 3.125 11.25 C2.94195312 12.12140625 2.75890625 12.9928125 2.5703125 13.890625 C2 16 2 16 1 17 C-0.66617115 17.04063832 -2.33388095 17.042721 -4 17 C-4.66 15.68 -5.32 14.36 -6 13 C-4.68 13.33 -3.36 13.66 -2 14 C-1.67 13.01 -1.34 12.02 -1 11 C-1.66 11 -2.32 11 -3 11 C-3 10.34 -3 9.68 -3 9 C-2.34 8.67 -1.68 8.34 -1 8 C-1 7.34 -1 6.68 -1 6 C-1.66 6 -2.32 6 -3 6 C-2 4 -1 2 0 0 Z " fill="#C6A475" transform="translate(24,1)"/>
<path d="M0 0 C5.94 0 11.88 0 18 0 C17.67 0.66 17.34 1.32 17 2 C14.71484375 2.4140625 14.71484375 2.4140625 11.9375 2.625 C10.55884766 2.73714844 10.55884766 2.73714844 9.15234375 2.8515625 C8.44207031 2.90054687 7.73179687 2.94953125 7 3 C6.89816406 3.63421875 6.79632812 4.2684375 6.69140625 4.921875 C6.46324219 5.60765625 6.23507813 6.2934375 6 7 C2.9375 8.25 2.9375 8.25 0 9 C0 6.03 0 3.06 0 0 Z " fill="#84704F" transform="translate(0,0)"/>
<path d="M0 0 C1.1446875 0.2784375 1.1446875 0.2784375 2.3125 0.5625 C5.08967375 1.22819173 5.08967375 1.22819173 8 0 C8 0.66 8 1.32 8 2 C7.34 2 6.68 2 6 2 C6 2.99 6 3.98 6 5 C8.475 5.99 8.475 5.99 11 7 C11 6.34 11 5.68 11 5 C11.66 5 12.32 5 13 5 C13 6.98 13 8.96 13 11 C11.02 11.99 11.02 11.99 9 13 C7.53515625 11.73046875 6.0703125 10.4609375 4.60546875 9.19140625 C2.89287029 7.79128769 2.89287029 7.79128769 0 7 C0 6.34 0 5.68 0 5 C0.66 5 1.32 5 2 5 C1.34 3.35 0.68 1.7 0 0 Z " fill="#9D7D4E" transform="translate(75,14)"/>
<path d="M0 0 C0.33 0.66 0.66 1.32 1 2 C0 4 0 4 -3.0625 5.125 C-4.5165625 5.558125 -4.5165625 5.558125 -6 6 C-6 6.99 -6 7.98 -6 9 C-4.68 9 -3.36 9 -2 9 C-2 8.01 -2 7.02 -2 6 C-1.34 6 -0.68 6 0 6 C0 6.99 0 7.98 0 9 C0.99 9 1.98 9 3 9 C3 9.66 3 10.32 3 11 C-0 13 -0 13 -2 14 C-2 13.34 -2 12.68 -2 12 C-3.32 11.67 -4.64 11.34 -6 11 C-6.33 11.66 -6.66 12.32 -7 13 C-7.33 10.69 -7.66 8.38 -8 6 C-8.99 5.67 -9.98 5.34 -11 5 C-10.67 4.01 -10.34 3.02 -10 2 C-6.7 1.34 -3.4 0.68 0 0 Z " fill="#B5925B" transform="translate(17,1)"/>
<path d="M0 0 C1.97986082 0.11347619 3.95891598 0.2410935 5.9375 0.375 C7.03964844 0.44460937 8.14179687 0.51421875 9.27734375 0.5859375 C10.62505859 0.79089844 10.62505859 0.79089844 12 1 C12.33 1.66 12.66 2.32 13 3 C12.01 3 11.02 3 10 3 C10 4.65 10 6.3 10 8 C9.34 8 8.68 8 8 8 C8 8.66 8 9.32 8 10 C8.66 10 9.32 10 10 10 C10 10.66 10 11.32 10 12 C10.99 12 11.98 12 13 12 C13.33 11.34 13.66 10.68 14 10 C14.66 10 15.32 10 16 10 C15.67 11.65 15.34 13.3 15 15 C13.35 15 11.7 15 10 15 C10 14.34 10 13.68 10 13 C8.68 12.67 7.36 12.34 6 12 C5.67 9.03 5.34 6.06 5 3 C2.525 2.01 2.525 2.01 0 1 C0 0.67 0 0.34 0 0 Z " fill="#AF8B5E" transform="translate(58,3)"/>
<path d="M0 0 C7.75 -0.125 7.75 -0.125 10 1 C10 1.99 10 2.98 10 4 C10.66 4.66 11.32 5.32 12 6 C9.69 5.67 7.38 5.34 5 5 C5 5.66 5 6.32 5 7 C4.38125 6.79375 3.7625 6.5875 3.125 6.375 C2.42375 6.25125 1.7225 6.1275 1 6 C0.34 6.66 -0.32 7.32 -1 8 C-3.625 8.125 -3.625 8.125 -6 8 C-6 7.01 -6 6.02 -6 5 C-4.02 4.34 -2.04 3.68 0 3 C0 2.01 0 1.02 0 0 Z " fill="#7E6444" transform="translate(51,80)"/>
<path d="M0 0 C1.32 0.33 2.64 0.66 4 1 C3.67 4.3 3.34 7.6 3 11 C2.01 11.33 1.02 11.66 0 12 C-0.66 11.67 -1.32 11.34 -2 11 C-2.12375 11.804375 -2.2475 12.60875 -2.375 13.4375 C-2.58125 14.283125 -2.7875 15.12875 -3 16 C-3.66 16.33 -4.32 16.66 -5 17 C-5 13.7 -5 10.4 -5 7 C-3.68 6.34 -2.36 5.68 -1 5 C-0.18828772 2.44480079 -0.18828772 2.44480079 0 0 Z " fill="#BF9C6C" transform="translate(5,12)"/>
<path d="M0 0 C0.33 0.66 0.66 1.32 1 2 C1.969375 2.2475 2.93875 2.495 3.9375 2.75 C7 4 7 4 8.4375 7 C9 10 9 10 8 12 C4.75266665 13.2757381 2.32967418 12.83241855 -1 12 C-0.67 11.01 -0.34 10.02 0 9 C-0.33 8.34 -0.66 7.68 -1 7 C-0.34 6.67 0.32 6.34 1 6 C0.01 4.68 -0.98 3.36 -2 2 C-1.34 1.34 -0.68 0.68 0 0 Z " fill="#8B7051" transform="translate(52,68)"/>
<path d="M0 0 C0 2.31 0 4.62 0 7 C-0.66 7 -1.32 7 -2 7 C-2 8.65 -2 10.3 -2 12 C-2.66 12 -3.32 12 -4 12 C-3.835 12.886875 -3.67 13.77375 -3.5 14.6875 C-4 18 -4 18 -5.7109375 19.546875 C-7.77938573 20.87605834 -9.71849284 22.07915073 -12 23 C-12.66 22.67 -13.32 22.34 -14 22 C-13.195625 21.38125 -12.39125 20.7625 -11.5625 20.125 C-8.96125481 18.25835959 -8.96125481 18.25835959 -8 16 C-7.34 16 -6.68 16 -6 16 C-6.04125 14.824375 -6.0825 13.64875 -6.125 12.4375 C-6.125 8.25233053 -5.44322076 4.92876763 -4 1 C-2 0 -2 0 0 0 Z " fill="#A3805A" transform="translate(59,36)"/>
<path d="M0 0 C0.66 0.33 1.32 0.66 2 1 C2.5625 3 2.5625 3 3 6 C3.13921875 6.73476563 3.2784375 7.46953125 3.421875 8.2265625 C3.79753644 10.53312377 4.0720376 12.66328045 4 15 C2.3125 17.0625 2.3125 17.0625 0 18 C-1.32 18 -2.64 18 -4 18 C-4 17.34 -4 16.68 -4 16 C-2.68 15.34 -1.36 14.68 0 14 C-0.99 13.34 -1.98 12.68 -3 12 C-2.01 8.04 -1.02 4.08 0 0 Z " fill="#AD835A" transform="translate(41,34)"/>
<path d="M0 0 C1.65 0.33 3.3 0.66 5 1 C5.33 2.65 5.66 4.3 6 6 C7.32 6.33 8.64 6.66 10 7 C9.67 6.01 9.34 5.02 9 4 C11.97 4.495 11.97 4.495 15 5 C13.68 5.33 12.36 5.66 11 6 C11 6.66 11 7.32 11 8 C5.61509359 8.91657981 0.45769811 9.11138159 -5 9 C-5.33 8.34 -5.66 7.68 -6 7 C-4.625 5.5 -4.625 5.5 -3 4 C-2.34 4 -1.68 4 -1 4 C-0.67 4.66 -0.34 5.32 0 6 C0.66 6 1.32 6 2 6 C1.34 4.02 0.68 2.04 0 0 Z " fill="#8B7254" transform="translate(66,76)"/>
<path d="M0 0 C6.51791392 -0.3540919 11.17521449 -0.03901852 17 3 C17 6 17 6 16 9 C10.72 9 5.44 9 0 9 C0.33 8.34 0.66 7.68 1 7 C4.0625 6.375 4.0625 6.375 7 6 C7 6.66 7 7.32 7 8 C7.66 8 8.32 8 9 8 C9 7.34 9 6.68 9 6 C10.32 5.67 11.64 5.34 13 5 C11.68 4.34 10.36 3.68 9 3 C9 2.34 9 1.68 9 1 C6.03 1 3.06 1 0 1 C0 0.67 0 0.34 0 0 Z " fill="#9A7F63" transform="translate(35,73)"/>
<path d="M0 0 C0 3.3 0 6.6 0 10 C-1.65 10 -3.3 10 -5 10 C-5.4021875 9.0409375 -5.4021875 9.0409375 -5.8125 8.0625 C-6.88667752 5.66868314 -6.88667752 5.66868314 -10 5 C-10 5.66 -10 6.32 -10 7 C-12.31 7 -14.62 7 -17 7 C-17 6.67 -17 6.34 -17 6 C-15.02 6 -13.04 6 -11 6 C-11 5.34 -11 4.68 -11 4 C-9.68 4 -8.36 4 -7 4 C-6.67 3.01 -6.34 2.02 -6 1 C-3 0 -3 0 0 0 Z " fill="#79603D" transform="translate(88,78)"/>
<path d="M0 0 C0.99 0 1.98 0 3 0 C3.05395478 1.62463842 3.09277195 3.24978541 3.125 4.875 C3.14820313 5.77992187 3.17140625 6.68484375 3.1953125 7.6171875 C3 10 3 10 1 12 C-1.1640625 12.4140625 -1.1640625 12.4140625 -3.625 12.625 C-4.44226562 12.69976562 -5.25953125 12.77453125 -6.1015625 12.8515625 C-6.72804687 12.90054688 -7.35453125 12.94953125 -8 13 C-7.34 11.68 -6.68 10.36 -6 9 C-5.01 9 -4.02 9 -3 9 C-2.814375 7.88625 -2.814375 7.88625 -2.625 6.75 C-2.04513299 4.19858515 -1.26291261 2.2732427 0 0 Z " fill="#816349" transform="translate(39,59)"/>
<path d="M0 0 C2.31 0 4.62 0 7 0 C8.20272819 2.40545638 8.10071472 3.94996953 8.0625 6.625 C8.05347656 7.44226562 8.04445313 8.25953125 8.03515625 9.1015625 C8.02355469 9.72804688 8.01195312 10.35453125 8 11 C8.66 11 9.32 11 10 11 C10 12.98 10 14.96 10 17 C9.67 15.68 9.34 14.36 9 13 C7.68 13 6.36 13 5 13 C4.87625 12.05125 4.7525 11.1025 4.625 10.125 C4.28312823 6.91332809 4.28312823 6.91332809 2 5 C1.34 4.34 0.68 3.68 0 3 C0 2.01 0 1.02 0 0 Z " fill="#D4AA7A" transform="translate(19,36)"/>
<path d="M0 0 C1.32 0 2.64 0 4 0 C3.625 2.9375 3.625 2.9375 3 6 C2.01 6.495 2.01 6.495 1 7 C1.66 8.32 2.32 9.64 3 11 C0 13 0 13 -2.0625 12.75 C-4 12 -4 12 -6 10 C-5.625 7.875 -5.625 7.875 -5 6 C-5 6.99 -5 7.98 -5 9 C-4.34 8.67 -3.68 8.34 -3 8 C-2.67 7.01 -2.34 6.02 -2 5 C-1.34 5 -0.68 5 0 5 C0 4.34 0 3.68 0 3 C-0.66 2.67 -1.32 2.34 -2 2 C-1.34 1.34 -0.68 0.68 0 0 Z " fill="#B99665" transform="translate(45,6)"/>
<path d="M0 0 C0.66 0.33 1.32 0.66 2 1 C1.01 2.485 1.01 2.485 0 4 C2.97 4 5.94 4 9 4 C8.01 4.495 8.01 4.495 7 5 C7 5.99 7 6.98 7 8 C5.35 8.33 3.7 8.66 2 9 C2 8.34 2 7.68 2 7 C1.071875 7.20625 0.14375 7.4125 -0.8125 7.625 C-4 8 -4 8 -7 6 C-7 5.34 -7 4.68 -7 4 C-1.7265625 0.77734375 -1.7265625 0.77734375 0 0 Z " fill="#AC9477" transform="translate(52,55)"/>
<path d="M0 0 C0.99 0 1.98 0 3 0 C3.67119549 1.4562545 4.33681807 2.91507867 5 4.375 C5.556875 5.59316406 5.556875 5.59316406 6.125 6.8359375 C7 9 7 9 7 11 C4.953125 11.51171875 2.90625 12.0234375 0.859375 12.53515625 C-0.06101563 12.76525391 -0.06101563 12.76525391 -1 13 C-1.0272415 11.58344207 -1.04650467 10.16672955 -1.0625 8.75 C-1.07410156 7.96109375 -1.08570312 7.1721875 -1.09765625 6.359375 C-1.00385306 4.09308998 -0.63241063 2.1711105 0 0 Z " fill="#CCAF84" transform="translate(1,34)"/>
<path d="M0 0 C0.66 0.33 1.32 0.66 2 1 C1.814375 1.598125 1.62875 2.19625 1.4375 2.8125 C0.77906313 5.16408762 0.77906313 5.16408762 2 8 C2.66 8.33 3.32 8.66 4 9 C4 9.66 4 10.32 4 11 C6.64 10.34 9.28 9.68 12 9 C12 9.66 12 10.32 12 11 C10.44033408 11.36644578 8.87707349 11.71760862 7.3125 12.0625 C6.44238281 12.25972656 5.57226562 12.45695312 4.67578125 12.66015625 C1.83998724 13.02032279 -0.24789982 12.70909969 -3 12 C-3.2954439 6.97745369 -2.98514628 4.10457614 0 0 Z " fill="#4D3A24" transform="translate(59,22)"/>
<path d="M0 0 C7.38461538 -0.36923077 7.38461538 -0.36923077 10.5 1.5 C10.995 1.995 11.49 2.49 12 3 C11 4 11 4 8.93359375 4.09765625 C8.10988281 4.08605469 7.28617188 4.07445312 6.4375 4.0625 C5.61121094 4.05347656 4.78492188 4.04445313 3.93359375 4.03515625 C3.29550781 4.02355469 2.65742187 4.01195312 2 4 C2 6.31 2 8.62 2 11 C0.68 10.01 -0.64 9.02 -2 8 C-1.47731534 5.23723823 -0.89130413 2.6739124 0 0 Z " fill="#AA8D64" transform="translate(3,46)"/>
<path d="M0 0 C0.28875 0.639375 0.5775 1.27875 0.875 1.9375 C1.82823451 4.15206079 1.82823451 4.15206079 4 5 C3.67 6.98 3.34 8.96 3 11 C2.34 10.67 1.68 10.34 1 10 C1 9.34 1 8.68 1 8 C-1.31 8 -3.62 8 -6 8 C-6.6875 6.1875 -6.6875 6.1875 -7 4 C-5.8125 2.1875 -5.8125 2.1875 -4 1 C-1.8125 1.3125 -1.8125 1.3125 0 2 C0 1.34 0 0.68 0 0 Z " fill="#B38C5B" transform="translate(13,31)"/>
<path d="M0 0 C1.32 0.33 2.64 0.66 4 1 C4 1.66 4 2.32 4 3 C6.475 3.99 6.475 3.99 9 5 C9.17835515 9.54805635 8.99785435 12.8794254 7 17 C6.01 17 5.02 17 4 17 C4.06960938 15.78763672 4.06960938 15.78763672 4.140625 14.55078125 C4.49892901 7.8209817 4.49892901 7.8209817 2 1.75 C1.34 1.1725 0.68 0.595 0 0 Z " fill="#908873" transform="translate(2,71)"/>
<path d="M0 0 C2.86724686 0.57344937 3.8614515 0.8614515 6 3 C6 3.99 6 4.98 6 6 C6.66 6.33 7.32 6.66 8 7 C5.23776722 9.76223278 2.79293383 9.57856291 -1 10 C-1 9.01 -1 8.02 -1 7 C-1.31088368 5.32900023 -1.64080332 3.66128463 -2 2 C-1.34 2 -0.68 2 0 2 C0 1.34 0 0.68 0 0 Z " fill="#D5BE9D" transform="translate(26,53)"/>
<path d="M0 0 C0 2.66666667 0 5.33333333 0 8 C-1.32 8 -2.64 8 -4 8 C-4 10.31 -4 12.62 -4 15 C-4.66 15 -5.32 15 -6 15 C-6.39222105 13.58800422 -6.76311059 12.17007236 -7.125 10.75 C-7.33382812 9.96109375 -7.54265625 9.1721875 -7.7578125 8.359375 C-8.04940748 5.51867555 -7.62984771 4.32253298 -6 2 C-2.875 0.75 -2.875 0.75 0 0 Z " fill="#956D45" transform="translate(51,34)"/>
<path d="M0 0 C0.66 0 1.32 0 2 0 C2 1.98 2 3.96 2 6 C3.21236328 5.98259766 3.21236328 5.98259766 4.44921875 5.96484375 C6.05216797 5.95130859 6.05216797 5.95130859 7.6875 5.9375 C8.74324219 5.92589844 9.79898438 5.91429687 10.88671875 5.90234375 C13.72410262 5.99134575 16.2438919 6.35060162 19 7 C19 7.33 19 7.66 19 8 C14.05 8 9.1 8 4 8 C6.64 8.66 9.28 9.32 12 10 C12 10.66 12 11.32 12 12 C4.51886792 12.36792453 4.51886792 12.36792453 2.28125 10.78125 C0.68377268 8.56036689 0.50904449 7.02481397 0.3125 4.3125 C0.24675781 3.50425781 0.18101563 2.69601563 0.11328125 1.86328125 C0.07589844 1.24839844 0.03851563 0.63351563 0 0 Z " fill="#A28A66" transform="translate(68,52)"/>
<path d="M0 0 C1.67542976 0.28604898 3.34385343 0.61781233 5 1 C5 1.99 5 2.98 5 4 C1.535 5.485 1.535 5.485 -2 7 C-2 7.33 -2 7.66 -2 8 C-3.65 8 -5.3 8 -7 8 C-7 7.01 -7 6.02 -7 5 C-7.66 4.67 -8.32 4.34 -9 4 C-9 3.34 -9 2.68 -9 2 C-6.94921875 1.77213542 -4.8984375 1.54427083 -2.84765625 1.31640625 C-0.98859771 1.18113386 -0.98859771 1.18113386 0 0 Z " fill="#82673F" transform="translate(78,47)"/>
<path d="M0 0 C0.99 0 1.98 0 3 0 C5.23940314 4.79872101 6.0560864 9.82855847 7 15 C6.01 15 5.02 15 4 15 C3.67 14.67 3.34 14.34 3 14 C2.34 15.32 1.68 16.64 1 18 C0.67 17.01 0.34 16.02 0 15 C0.33 14.34 0.66 13.68 1 13 C0.34 12.67 -0.32 12.34 -1 12 C-0.484375 11.443125 0.03125 10.88625 0.5625 10.3125 C2.27060758 8.08723079 2.27060758 8.08723079 1.75 5.4375 C1.19004371 3.61764204 0.60211577 1.80634732 0 0 Z " fill="#AF906D" transform="translate(25,20)"/>
<path d="M0 0 C0.66 0 1.32 0 2 0 C2.33 1.65 2.66 3.3 3 5 C1.35 5.33 -0.3 5.66 -2 6 C-2.33 6.99 -2.66 7.98 -3 9 C-4.98 9.33 -6.96 9.66 -9 10 C-9 10.66 -9 11.32 -9 12 C-9.99 11.67 -10.98 11.34 -12 11 C-10.21829434 9.12452035 -8.41702241 7.54194618 -6.375 5.9375 C-3.93968019 4.22133095 -3.93968019 4.22133095 -3 2 C-2.01 2 -1.02 2 0 2 C0 1.34 0 0.68 0 0 Z " fill="#BD9D71" transform="translate(77,27)"/>
<path d="M0 0 C1.65 0 3.3 0 5 0 C5 0.99 5 1.98 5 3 C5.99 3.33 6.98 3.66 8 4 C8 4.99 8 5.98 8 7 C2.72 6.67 -2.56 6.34 -8 6 C-8 5.67 -8 5.34 -8 5 C-5.69 5 -3.38 5 -1 5 C-0.67 3.35 -0.34 1.7 0 0 Z " fill="#947B52" transform="translate(78,52)"/>
<path d="M0 0 C0.33 0 0.66 0 1 0 C1 1.65 1 3.3 1 5 C-1.31 5 -3.62 5 -6 5 C-6 6.98 -6 8.96 -6 11 C-6.66 11 -7.32 11 -8 11 C-8 9.68 -8 8.36 -8 7 C-8.99 7 -9.98 7 -11 7 C-11 5.35 -11 3.7 -11 2 C-7.535 1.505 -7.535 1.505 -4 1 C-4 1.66 -4 2.32 -4 3 C-2.68 3 -1.36 3 0 3 C0 2.01 0 1.02 0 0 Z " fill="#CEB287" transform="translate(22,50)"/>
<path d="M0 0 C1.65 0 3.3 0 5 0 C5 4.29 5 8.58 5 13 C2.69 13.66 0.38 14.32 -2 15 C-1.67 14.01 -1.34 13.02 -1 12 C1.0625 11.3125 1.0625 11.3125 3 11 C2.01 10.01 1.02 9.02 0 8 C0.99 7.01 1.98 6.02 3 5 C2.34 5 1.68 5 1 5 C0.67 3.35 0.34 1.7 0 0 Z " fill="#937A57" transform="translate(83,65)"/>
<path d="M0 0 C0.66 0 1.32 0 2 0 C2 1.32 2 2.64 2 4 C2.66 4.33 3.32 4.66 4 5 C-1.445 5.495 -1.445 5.495 -7 6 C-7 6.66 -7 7.32 -7 8 C-8.98 8.99 -8.98 8.99 -11 10 C-11.33 8.35 -11.66 6.7 -12 5 C-11.21753906 4.80664062 -10.43507813 4.61328125 -9.62890625 4.4140625 C-8.61699219 4.15367188 -7.60507813 3.89328125 -6.5625 3.625 C-5.55316406 3.36976562 -4.54382813 3.11453125 -3.50390625 2.8515625 C-0.84429676 2.27426046 -0.84429676 2.27426046 0 0 Z " fill="#B4A386" transform="translate(12,57)"/>
<path d="M0 0 C0.33 0.66 0.66 1.32 1 2 C1.66 2 2.32 2 3 2 C3 1.34 3 0.68 3 0 C4.32 0.33 5.64 0.66 7 1 C6.01 1.66 5.02 2.32 4 3 C2.79517061 4.7179646 2.79517061 4.7179646 1.8125 6.625 C1.214375 7.73875 0.61625 8.8525 0 10 C-1.32 9.67 -2.64 9.34 -4 9 C-3.6875 5.625 -3.6875 5.625 -3 2 C-2.01 1.34 -1.02 0.68 0 0 Z " fill="#A28664" transform="translate(54,21)"/>
<path d="M0 0 C2.97 0.33 5.94 0.66 9 1 C9 2.98 9 4.96 9 7 C6.625 7.625 6.625 7.625 4 8 C3.34 7.34 2.68 6.68 2 6 C2.33 5.34 2.66 4.68 3 4 C2.01 3.34 1.02 2.68 0 2 C0 1.34 0 0.68 0 0 Z " fill="#BFA587" transform="translate(59,55)"/>
<path d="M0 0 C1.65 0 3.3 0 5 0 C5.33 0.99 5.66 1.98 6 3 C8.64 2.01 11.28 1.02 14 0 C13.67 1.65 13.34 3.3 13 5 C11.3954444 4.85851011 9.79136233 4.71164314 8.1875 4.5625 C7.29417969 4.48128906 6.40085937 4.40007813 5.48046875 4.31640625 C3 4 3 4 0 3 C0.66 4.32 1.32 5.64 2 7 C1.01 6.67 0.02 6.34 -1 6 C-0.67 4.02 -0.34 2.04 0 0 Z " fill="#95684A" transform="translate(31,49)"/>
<path d="M0 0 C0 1.32 0 2.64 0 4 C-1.175625 3.9690625 -1.175625 3.9690625 -2.375 3.9375 C-4.98114961 3.81315937 -4.98114961 3.81315937 -7 5 C-7 6.32 -7 7.64 -7 9 C-7.99 9 -8.98 9 -10 9 C-10 6.69 -10 4.38 -10 2 C-8.71211992 1.46987262 -7.41953322 0.9511671 -6.125 0.4375 C-5.40570312 0.14746094 -4.68640625 -0.14257812 -3.9453125 -0.44140625 C-2 -1 -2 -1 0 0 Z " fill="#B99C70" transform="translate(10,7)"/>
<path d="M0 0 C1.65 0 3.3 0 5 0 C5.17461992 4.45280788 5.30238787 8.08594062 3 12 C0.875 12.8125 0.875 12.8125 -1 13 C-0.67 10.69 -0.34 8.38 0 6 C0.99 5.67 1.98 5.34 3 5 C3 4.01 3 3.02 3 2 C2.01 1.67 1.02 1.34 0 1 C0 0.67 0 0.34 0 0 Z " fill="#99775B" transform="translate(33,56)"/>
<path d="M0 0 C1.81242052 -0.02687279 3.62495233 -0.04633715 5.4375 -0.0625 C6.44683594 -0.07410156 7.45617187 -0.08570313 8.49609375 -0.09765625 C11 0 11 0 12 1 C12.45459858 3.65463121 12.70243238 6.32189138 13 9 C12.01 9.495 12.01 9.495 11 10 C11 8.02 11 6.04 11 4 C7.37 4 3.74 4 0 4 C0 2.68 0 1.36 0 0 Z " fill="#AF9572" transform="translate(57,52)"/>
<path d="M0 0 C2.05078125 0.03255208 4.1015625 0.06510417 6.15234375 0.09765625 C4.83234375 0.42765625 3.51234375 0.75765625 2.15234375 1.09765625 C2.15234375 1.75765625 2.15234375 2.41765625 2.15234375 3.09765625 C2.81234375 3.09765625 3.47234375 3.09765625 4.15234375 3.09765625 C4.15234375 4.08765625 4.15234375 5.07765625 4.15234375 6.09765625 C3.16234375 6.42765625 2.17234375 6.75765625 1.15234375 7.09765625 C0.16234375 8.58265625 0.16234375 8.58265625 -0.84765625 10.09765625 C-0.84765625 8.77765625 -0.84765625 7.45765625 -0.84765625 6.09765625 C-1.50765625 6.09765625 -2.16765625 6.09765625 -2.84765625 6.09765625 C-2.89037725 4.4315372 -2.88829457 2.7638274 -2.84765625 1.09765625 C-1.84765625 0.09765625 -1.84765625 0.09765625 0 0 Z " fill="#745F48" transform="translate(16.84765625,18.90234375)"/>
<path d="M0 0 C0.99 0 1.98 0 3 0 C3 0.99 3 1.98 3 3 C2.34 3.66 1.68 4.32 1 5 C0.835 5.825 0.67 6.65 0.5 7.5 C0 10 0 10 -2 12 C-2.99 10.35 -3.98 8.7 -5 7 C-4.24172908 5.82512964 -3.46792245 4.66027408 -2.6875 3.5 C-2.25824219 2.8503125 -1.82898437 2.200625 -1.38671875 1.53125 C-0.70029297 0.77328125 -0.70029297 0.77328125 0 0 Z " fill="#9C7F53" transform="translate(51,19)"/>
<path d="M0 0 C1.32 0.66 2.64 1.32 4 2 C4 2.99 4 3.98 4 5 C3.525625 5.45375 3.05125 5.9075 2.5625 6.375 C0.55416651 8.46366683 0.38130476 10.1783448 0 13 C-2.31 12.67 -4.62 12.34 -7 12 C-4.91560918 8.87341377 -4.1536966 8.5768483 -1 7 C1.30671915 4.28450846 1.30671915 4.28450846 0.625 1.8125 C0.41875 1.214375 0.2125 0.61625 0 0 Z " fill="#AD9275" transform="translate(32,56)"/>
<path d="M0 0 C0.66 0 1.32 0 2 0 C2.25 3.3125 2.25 3.3125 2 7 C0.25 8.75 0.25 8.75 -2 10 C-2.7425 10.556875 -3.485 11.11375 -4.25 11.6875 C-4.8275 12.120625 -5.405 12.55375 -6 13 C-6.66 12.67 -7.32 12.34 -8 12 C-6.1875 9 -6.1875 9 -4 6 C-3.01 6 -2.02 6 -1 6 C-1.020625 5.195625 -1.04125 4.39125 -1.0625 3.5625 C-1 1 -1 1 0 0 Z " fill="#836236" transform="translate(86,28)"/>
<path d="M0 0 C0.33 0.66 0.66 1.32 1 2 C-0.31914629 4.63829259 -1.23857335 4.98263229 -4 6 C-6.33203812 6.0777346 -8.66839059 6.08967728 -11 6 C-10.67 4.68 -10.34 3.36 -10 2 C-6.7 1.34 -3.4 0.68 0 0 Z " fill="#B19467" transform="translate(17,1)"/>
<path d="M0 0 C0.33 0.99 0.66 1.98 1 3 C1.9075 2.46375 2.815 1.9275 3.75 1.375 C7 0 7 0 9.375 0.8125 C9.91125 1.204375 10.4475 1.59625 11 2 C9.75 3.5 9.75 3.5 8 5 C6.68 5 5.36 5 4 5 C4 5.66 4 6.32 4 7 C3.01 7 2.02 7 1 7 C0.67 4.69 0.34 2.38 0 0 Z " fill="#BEAB8C" transform="translate(16,62)"/>
<path d="M0 0 C0.66 0 1.32 0 2 0 C2 1.98 2 3.96 2 6 C0.02 6.99 0.02 6.99 -2 8 C-2.99 7.34 -3.98 6.68 -5 6 C-4.625 4.0625 -4.625 4.0625 -4 2 C-3.34 1.67 -2.68 1.34 -2 1 C-1.34 1.33 -0.68 1.66 0 2 C0 1.34 0 0.68 0 0 Z " fill="#A38358" transform="translate(86,19)"/>
<path d="M0 0 C0.99 0.66 1.98 1.32 3 2 C2.67 4.64 2.34 7.28 2 10 C0.68 10 -0.64 10 -2 10 C-2 7.36 -2 4.72 -2 2 C-1.34 2 -0.68 2 0 2 C0 1.34 0 0.68 0 0 Z " fill="#676557" transform="translate(2,78)"/>
<path d="M0 0 C-0.33 0.99 -0.66 1.98 -1 3 C-4.75907641 4.62323754 -7.92086213 5.23994929 -12 5 C-12 3.68 -12 2.36 -12 1 C-10.56274129 0.83126522 -9.12518162 0.66509263 -7.6875 0.5 C-6.88699219 0.4071875 -6.08648437 0.314375 -5.26171875 0.21875 C-3 0 -3 0 0 0 Z " fill="#A79371" transform="translate(12,57)"/>
<path d="M0 0 C1.32 0 2.64 0 4 0 C4 3.96 4 7.92 4 12 C3.34 11.67 2.68 11.34 2 11 C2.33 10.01 2.66 9.02 3 8 C2.34 8 1.68 8 1 8 C-0.42944945 5.64561267 -1.08661261 4.51967567 -0.625 1.75 C-0.41875 1.1725 -0.2125 0.595 0 0 Z " fill="#8C7449" transform="translate(84,39)"/>
<path d="M0 0 C1.65 0.33 3.3 0.66 5 1 C4.67 3.31 4.34 5.62 4 8 C2.68 7.67 1.36 7.34 0 7 C-1.125 2.25 -1.125 2.25 0 0 Z " fill="#DAC4A4" transform="translate(16,55)"/>
<path d="M0 0 C1.42944945 2.35438733 2.08661261 3.48032433 1.625 6.25 C1.41875 6.8275 1.2125 7.405 1 8 C-0.98 8 -2.96 8 -5 8 C-5.33 6.68 -5.66 5.36 -6 4 C-4.7934375 3.566875 -4.7934375 3.566875 -3.5625 3.125 C-0.8673532 2.26737432 -0.8673532 2.26737432 0 0 Z " fill="#978261" transform="translate(26,80)"/>
<path d="M0 0 C1.65 0 3.3 0 5 0 C5 0.99 5 1.98 5 3 C4.01 3 3.02 3 2 3 C2.66 4.98 3.32 6.96 4 9 C2.68 9 1.36 9 0 9 C-1.125 2.25 -1.125 2.25 0 0 Z " fill="#E8C392" transform="translate(33,25)"/>
<path d="M0 0 C5.21979128 -0.1799928 9.07262981 0.02905192 14 2 C13.01 3.485 13.01 3.485 12 5 C11.34 5 10.68 5 10 5 C10 6.32 10 7.64 10 9 C9.34 9 8.68 9 8 9 C7.67 6.69 7.34 4.38 7 2 C4.69 1.67 2.38 1.34 0 1 C0 0.67 0 0.34 0 0 Z " fill="#574021" transform="translate(63,21)"/>
<path d="M0 0 C5.75 -0.125 5.75 -0.125 8 1 C8 2.32 8 3.64 8 5 C5.36 4.67 2.72 4.34 0 4 C0 2.68 0 1.36 0 0 Z " fill="#7F6844" transform="translate(75,65)"/>
<path d="M0 0 C1.2065625 0.0309375 1.2065625 0.0309375 2.4375 0.0625 C2.4375 1.7125 2.4375 3.3625 2.4375 5.0625 C0.4575 5.3925 -1.5225 5.7225 -3.5625 6.0625 C-3.605221 4.39638095 -3.60313832 2.72867115 -3.5625 1.0625 C-2.5625 0.0625 -2.5625 0.0625 0 0 Z " fill="#664627" transform="translate(47.5625,49.9375)"/>
<path d="M0 0 C2.31 0 4.62 0 7 0 C6.3125 2.375 6.3125 2.375 5 5 C2.375 6.3125 2.375 6.3125 0 7 C0 4.69 0 2.38 0 0 Z " fill="#402F1A" transform="translate(0,0)"/>
<path d="M0 0 C-0.99 1.485 -0.99 1.485 -2 3 C-4.64 2.67 -7.28 2.34 -10 2 C-10 1.01 -10 0.02 -10 -1 C-5.94568308 -2.15837626 -3.78187881 -1.83691257 0 0 Z " fill="#B98D6A" transform="translate(42,47)"/>
<path d="M0 0 C3.63 0 7.26 0 11 0 C11 1.65 11 3.3 11 5 C9.53932801 4.54917531 8.08151968 4.08906463 6.625 3.625 C5.81289062 3.36976562 5.00078125 3.11453125 4.1640625 2.8515625 C2 2 2 2 0 0 Z " fill="#584024" transform="translate(77,0)"/>
<path d="M0 0 C0.33 0 0.66 0 1 0 C1 1.98 1 3.96 1 6 C1.99 6 2.98 6 4 6 C3.67 7.32 3.34 8.64 3 10 C5.97 10.495 5.97 10.495 9 11 C8.34 11.66 7.68 12.32 7 13 C6.01 13 5.02 13 4 13 C4 12.34 4 11.68 4 11 C3.01 11.33 2.02 11.66 1 12 C0.01751476 7.9472484 -0.08159574 4.16138263 0 0 Z " fill="#988667" transform="translate(26,68)"/>
<path d="M0 0 C0.99 0.33 1.98 0.66 3 1 C3 1.66 3 2.32 3 3 C2.34 3 1.68 3 1 3 C1 4.32 1 5.64 1 7 C1.99 7 2.98 7 4 7 C4.66 5.68 5.32 4.36 6 3 C6 5.31 6 7.62 6 10 C5.34 10 4.68 10 4 10 C3.67 10.66 3.34 11.32 3 12 C3 10.68 3 9.36 3 8 C1.35 8 -0.3 8 -2 8 C-1.34 7.67 -0.68 7.34 0 7 C0 4.69 0 2.38 0 0 Z " fill="#825E3C" transform="translate(47,42)"/>
<path d="M0 0 C1.32 0.33 2.64 0.66 4 1 C3.34 3.97 2.68 6.94 2 10 C0.68 9.67 -0.64 9.34 -2 9 C-1.34 6.03 -0.68 3.06 0 0 Z " fill="#CAA578" transform="translate(60,37)"/>
<path d="M0 0 C0.33 0 0.66 0 1 0 C1.12375 0.804375 1.2475 1.60875 1.375 2.4375 C1.58125 3.283125 1.7875 4.12875 2 5 C2.66 5.33 3.32 5.66 4 6 C4 6.66 4 7.32 4 8 C-0.97063121 8.91297308 -5.02936879 8.91297308 -10 8 C-10 7.67 -10 7.34 -10 7 C-5.545 6.505 -5.545 6.505 -1 6 C-0.67 4.02 -0.34 2.04 0 0 Z " fill="#B59569" transform="translate(26,11)"/>
<path d="M0 0 C0.99 0.33 1.98 0.66 3 1 C2.67 2.65 2.34 4.3 2 6 C-1.3 5.34 -4.6 4.68 -8 4 C-7.67 3.34 -7.34 2.68 -7 2 C-6.01 2.33 -5.02 2.66 -4 3 C-3.67 2.34 -3.34 1.68 -3 1 C-2.01 1.66 -1.02 2.32 0 3 C0 2.01 0 1.02 0 0 Z " fill="#BF996D" transform="translate(12,42)"/>
<path d="M0 0 C0.99 0 1.98 0 3 0 C3.33 0.99 3.66 1.98 4 3 C1.60236815 5.39763185 0.66726502 5.34280586 -2.625 5.625 C-3.44226562 5.69976562 -4.25953125 5.77453125 -5.1015625 5.8515625 C-5.72804687 5.90054688 -6.35453125 5.94953125 -7 6 C-5.75 4.5 -5.75 4.5 -4 3 C-2.68 3 -1.36 3 0 3 C0 2.01 0 1.02 0 0 Z " fill="#735739" transform="translate(38,66)"/>
<path d="M0 0 C2.64 0.33 5.28 0.66 8 1 C7.01 1.33 6.02 1.66 5 2 C5 3.32 5 4.64 5 6 C3.35 6.33 1.7 6.66 0 7 C0.33 6.01 0.66 5.02 1 4 C0.61067144 1.85744207 0.61067144 1.85744207 0 0 Z " fill="#C4AA82" transform="translate(6,50)"/>
<path d="M0 0 C0.433125 0.495 0.86625 0.99 1.3125 1.5 C2.99740483 3.33218192 2.99740483 3.33218192 6 3 C7.68236471 3.62599617 9.3523962 4.28752268 11 5 C8 7 8 7 4.9375 6.8125 C2 6 2 6 0 3 C0 2.01 0 1.02 0 0 Z " fill="#98815A" transform="translate(13,28)"/>
<path d="M0 0 C2.475 0.495 2.475 0.495 5 1 C4.34 3.31 3.68 5.62 3 8 C2.01 7.67 1.02 7.34 0 7 C0 4.69 0 2.38 0 0 Z " fill="#A27E50" transform="translate(54,11)"/>
<path d="M0 0 C-0.33 1.32 -0.66 2.64 -1 4 C-3.64 3.67 -6.28 3.34 -9 3 C-9 2.34 -9 1.68 -9 1 C-6.04335481 -0.4783226 -3.25770263 -0.06032783 0 0 Z " fill="#A68557" transform="translate(69,0)"/>
<path d="M0 0 C1.9375 0.8125 1.9375 0.8125 4 2 C4.33 2.99 4.66 3.98 5 5 C4.01 5.66 3.02 6.32 2 7 C1.01 6.67 0.02 6.34 -1 6 C-1.33 5.01 -1.66 4.02 -2 3 C-1.34 2.01 -0.68 1.02 0 0 Z " fill="#C8A570" transform="translate(40,17)"/>
<path d="M0 0 C2 2 2 2 2 5 C2.66 5 3.32 5 4 5 C4 4.34 4 3.68 4 3 C4.66 3.33 5.32 3.66 6 4 C6 5.65 6 7.3 6 9 C3.03 8.505 3.03 8.505 0 8 C0 5.36 0 2.72 0 0 Z " fill="#C7A574" transform="translate(34,8)"/>
<path d="M0 0 C0.99 0.33 1.98 0.66 3 1 C4.25 3.9375 4.25 3.9375 5 7 C4.67 7.66 4.34 8.32 4 9 C1.9375 9.625 1.9375 9.625 0 10 C0.185625 9.278125 0.37125 8.55625 0.5625 7.8125 C1.01995307 4.87173027 0.73516357 2.85896942 0 0 Z " fill="#846C4A" transform="translate(56,71)"/>
<path d="M0 0 C2.31 0 4.62 0 7 0 C7 1.32 7 2.64 7 4 C4.69 3.67 2.38 3.34 0 3 C0 2.01 0 1.02 0 0 Z " fill="#866C45" transform="translate(81,61)"/>
<path d="M0 0 C0.99 0 1.98 0 3 0 C3.33 1.98 3.66 3.96 4 6 C2.35 6 0.7 6 -1 6 C-1.33 4.68 -1.66 3.36 -2 2 C-1.34 2 -0.68 2 0 2 C0 1.34 0 0.68 0 0 Z " fill="#E1C9A4" transform="translate(26,53)"/>
<path d="M0 0 C2.97 0.495 2.97 0.495 6 1 C5.3125 2.9375 5.3125 2.9375 4 5 C1.375 5.75 1.375 5.75 -1 6 C-1.33 5.01 -1.66 4.02 -2 3 C-1.34 3 -0.68 3 0 3 C0 2.01 0 1.02 0 0 Z " fill="#A6855F" transform="translate(47,30)"/>
<path d="M0 0 C0.99 0.33 1.98 0.66 3 1 C3 1.66 3 2.32 3 3 C3.61875 3.28875 4.2375 3.5775 4.875 3.875 C7 5 7 5 9 7 C9 7.99 9 8.98 9 10 C7 10 7 10 5.2734375 8.3203125 C4.64695312 7.59585938 4.02046875 6.87140625 3.375 6.125 C2.74335937 5.40570313 2.11171875 4.68640625 1.4609375 3.9453125 C0 2 0 2 0 0 Z " fill="#A78F6F" transform="translate(71,71)"/>
<path d="M0 0 C4.95696581 1.23924145 7.11658466 2.78577758 10 7 C6.33118845 6.29445932 3.29549466 4.72264494 0 3 C0 2.01 0 1.02 0 0 Z " fill="#7C6045" transform="translate(44,68)"/>
<path d="M0 0 C0.33 1.32 0.66 2.64 1 4 C-3.455 4.495 -3.455 4.495 -8 5 C-8.33 4.01 -8.66 3.02 -9 2 C-6.03 2.33 -3.06 2.66 0 3 C0 2.01 0 1.02 0 0 Z " fill="#A5885E" transform="translate(67,48)"/>
<path d="M0 0 C0.33 0.66 0.66 1.32 1 2 C2.65 2 4.3 2 6 2 C6.33 1.34 6.66 0.68 7 0 C6.67 2.31 6.34 4.62 6 7 C5.34 7 4.68 7 4 7 C4 6.34 4 5.68 4 5 C2.68 4.67 1.36 4.34 0 4 C0 2.68 0 1.36 0 0 Z " fill="#D3A776" transform="translate(32,32)"/>
<path d="M0 0 C0.33 0.66 0.66 1.32 1 2 C-0.55966592 2.36644578 -2.12292651 2.71760862 -3.6875 3.0625 C-4.55761719 3.25972656 -5.42773438 3.45695312 -6.32421875 3.66015625 C-9.16001276 4.02032279 -11.24789982 3.70909969 -14 3 C-13.67 2.34 -13.34 1.68 -13 1 C-12.22914062 1.01160156 -11.45828125 1.02320313 -10.6640625 1.03515625 C-9.15972656 1.04869141 -9.15972656 1.04869141 -7.625 1.0625 C-6.12839844 1.07990234 -6.12839844 1.07990234 -4.6015625 1.09765625 C-2.01567547 1.18006602 -2.01567547 1.18006602 0 0 Z " fill="#5B4832" transform="translate(70,31)"/>
<path d="M0 0 C0.66 0 1.32 0 2 0 C3.0326802 2.78823655 3.04509293 3.8677274 2.0625 6.75 C1.711875 7.4925 1.36125 8.235 1 9 C-1 8 -1 8 -1.75 6.1875 C-2.05694702 3.50171361 -1.38111722 2.2747813 0 0 Z " fill="#3C2D18" transform="translate(61,22)"/>
<path d="M0 0 C3.63 0.66 7.26 1.32 11 2 C9 3 7 4 5 5 C2.375 4.0625 2.375 4.0625 0 3 C0 2.01 0 1.02 0 0 Z " fill="#89714E" transform="translate(68,62)"/>
<path d="M0 0 C1.67542976 0.28604898 3.34385343 0.61781233 5 1 C5 1.99 5 2.98 5 4 C4.236875 3.979375 3.47375 3.95875 2.6875 3.9375 C-0.10185786 3.87057159 -0.10185786 3.87057159 -3 5 C-1.125 1.125 -1.125 1.125 0 0 Z " fill="#735732" transform="translate(78,47)"/>
<path d="M0 0 C1.65 0 3.3 0 5 0 C5 2.64 5 5.28 5 8 C4.01 7.67 3.02 7.34 2 7 C2.66 7 3.32 7 4 7 C4 6.01 4 5.02 4 4 C2.68 3.67 1.36 3.34 0 3 C0 2.01 0 1.02 0 0 Z " fill="#C9A471" transform="translate(39,24)"/>
<path d="M0 0 C0.99 0.66 1.98 1.32 3 2 C2.01 3.485 2.01 3.485 1 5 C-1.625 5.1875 -1.625 5.1875 -4 5 C-4 4.01 -4 3.02 -4 2 C-2.68 1.34 -1.36 0.68 0 0 Z " fill="#755B39" transform="translate(49,83)"/>
<path d="M0 0 C1.65 0 3.3 0 5 0 C4.67 1.65 4.34 3.3 4 5 C2.35 4.67 0.7 4.34 -1 4 C-0.67 2.68 -0.34 1.36 0 0 Z " fill="#A59071" transform="translate(30,74)"/>
<path d="M0 0 C0.33 0.66 0.66 1.32 1 2 C2.32 2 3.64 2 5 2 C5 2.99 5 3.98 5 5 C4.01 5 3.02 5 2 5 C2 4.34 2 3.68 2 3 C-0.97 3 -3.94 3 -7 3 C-7 2.67 -7 2.34 -7 2 C-4.69 1.34 -2.38 0.68 0 0 Z " fill="#BFA072" transform="translate(16,48)"/>
<path d="M0 0 C-0.33 0.99 -0.66 1.98 -1 3 C-3.31 3 -5.62 3 -8 3 C-8.33 3.66 -8.66 4.32 -9 5 C-9 4.34 -9 3.68 -9 3 C-9.99 2.67 -10.98 2.34 -12 2 C-8.1017869 0.70059563 -4.12061237 0 0 0 Z " fill="#B4946F" transform="translate(26,33)"/>
<path d="M0 0 C0.66 0.33 1.32 0.66 2 1 C1.34 2.98 0.68 4.96 0 7 C-1.32 6.67 -2.64 6.34 -4 6 C-3.67 5.01 -3.34 4.02 -3 3 C-2.34 3 -1.68 3 -1 3 C-0.67 2.01 -0.34 1.02 0 0 Z " fill="#AF9571" transform="translate(54,24)"/>
<path d="M0 0 C0.33 0.66 0.66 1.32 1 2 C3.52733235 2.65555119 3.52733235 2.65555119 6 3 C6 3.66 6 4.32 6 5 C5.01 5 4.02 5 3 5 C3 5.66 3 6.32 3 7 C2.34 7 1.68 7 1 7 C0.67 6.01 0.34 5.02 0 4 C-0.33 3.34 -0.66 2.68 -1 2 C-0.67 1.34 -0.34 0.68 0 0 Z " fill="#998368" transform="translate(53,62)"/>
<path d="M0 0 C0.33 0.66 0.66 1.32 1 2 C3.01669827 3.13350534 3.01669827 3.13350534 5 4 C4.01 4.66 3.02 5.32 2 6 C-0.6875 5.125 -0.6875 5.125 -3 4 C-3 3.34 -3 2.68 -3 2 C-2.01 1.34 -1.02 0.68 0 0 Z " fill="#A38B6E" transform="translate(48,57)"/>
<path d="M0 0 C1.65 0 3.3 0 5 0 C5 1.32 5 2.64 5 4 C4.34 4 3.68 4 3 4 C2.67 4.66 2.34 5.32 2 6 C0 3 0 3 0 0 Z " fill="#E5C093" transform="translate(23,49)"/>
<path d="M0 0 C0.99 0 1.98 0 3 0 C3.58052245 3.00988272 4.05989746 5.92889402 4 9 C2.0625 11.0625 2.0625 11.0625 0 12 C0.350625 11.443125 0.70125 10.88625 1.0625 10.3125 C2.58507353 6.55681863 1.23891627 3.7167488 0 0 Z " fill="#8E785A" transform="translate(25,20)"/>
<path d="M0 0 C1.32 0.33 2.64 0.66 4 1 C4.33 2.32 4.66 3.64 5 5 C3.68 5 2.36 5 1 5 C0.67 3.35 0.34 1.7 0 0 Z " fill="#674E2B" transform="translate(78,83)"/>
<path d="M0 0 C2.475 0.495 2.475 0.495 5 1 C4.01 1.99 3.02 2.98 2 4 C4.97 4.495 4.97 4.495 8 5 C8 5.33 8 5.66 8 6 C5.36 6 2.72 6 0 6 C0 4.02 0 2.04 0 0 Z " fill="#8B785A" transform="translate(27,68)"/>
<path d="M0 0 C0.66 0.33 1.32 0.66 2 1 C1.625 3.4375 1.625 3.4375 1 6 C0.01 6.495 0.01 6.495 -1 7 C-1.66 7.99 -2.32 8.98 -3 10 C-3 7.69 -3 5.38 -3 3 C-2.01 3 -1.02 3 0 3 C0 2.01 0 1.02 0 0 Z " fill="#D7BD98" transform="translate(23,52)"/>
<path d="M0 0 C2.64 0 5.28 0 8 0 C6.68 0.33 5.36 0.66 4 1 C4 1.66 4 2.32 4 3 C3.34 3 2.68 3 2 3 C2 3.66 2 4.32 2 5 C1.34 5 0.68 5 0 5 C0 3.35 0 1.7 0 0 Z " fill="#71512F" transform="translate(15,19)"/>
<path d="M0 0 C0.66 0.66 1.32 1.32 2 2 C1.34 2 0.68 2 0 2 C0 3.98 0 5.96 0 8 C-0.66 8 -1.32 8 -2 8 C-2.66 6.02 -3.32 4.04 -4 2 C-2.68 1.34 -1.36 0.68 0 0 Z " fill="#D3BB95" transform="translate(16,53)"/>
<path d="M0 0 C0.99 0.33 1.98 0.66 3 1 C-0.75 4 -0.75 4 -3 4 C-3 4.66 -3 5.32 -3 6 C-3.99 5.67 -4.98 5.34 -6 5 C-4.06745228 2.9754262 -2.36841312 1.57894208 0 0 Z " fill="#C6A881" transform="translate(71,33)"/>
<path d="M0 0 C1.35439668 2.70879335 1.06501451 5.00933268 1 8 C-0.32 7.67 -1.64 7.34 -3 7 C-3.33 7.66 -3.66 8.32 -4 9 C-3.67 7.68 -3.34 6.36 -3 5 C-2.34 5 -1.68 5 -1 5 C-0.67 3.35 -0.34 1.7 0 0 Z " fill="#C29D70" transform="translate(12,25)"/>
<path d="M0 0 C1.32 0.33 2.64 0.66 4 1 C4 1.99 4 2.98 4 4 C2.68 4.33 1.36 4.66 0 5 C0 4.34 0 3.68 0 3 C-0.99 2.67 -1.98 2.34 -3 2 C-2.01 2 -1.02 2 0 2 C0 1.34 0 0.68 0 0 Z " fill="#D3AD79" transform="translate(39,27)"/>
<path d="M0 0 C0.66 0.33 1.32 0.66 2 1 C1.67 2.98 1.34 4.96 1 7 C-0.32 7 -1.64 7 -3 7 C-1.125 1.125 -1.125 1.125 0 0 Z " fill="#5B3F28" transform="translate(59,22)"/>
<path d="M0 0 C2.475 0.495 2.475 0.495 5 1 C5 1.99 5 2.98 5 4 C5.66 4.33 6.32 4.66 7 5 C3 5 3 5 1.25 3.625 C0 2 0 2 0 0 Z " fill="#392811" transform="translate(19,20)"/>
<path d="M0 0 C1.65 0 3.3 0 5 0 C5 0.99 5 1.98 5 3 C4.34 3 3.68 3 3 3 C3 3.66 3 4.32 3 5 C2.34 5 1.68 5 1 5 C0.67 3.35 0.34 1.7 0 0 Z " fill="#9D8663" transform="translate(83,65)"/>
<path d="M0 0 C0.66 0 1.32 0 2 0 C2 1.32 2 2.64 2 4 C2.66 4.33 3.32 4.66 4 5 C1.69 4.67 -0.62 4.34 -3 4 C-1.625 2 -1.625 2 0 0 Z " fill="#BFA986" transform="translate(12,57)"/>
<path d="M0 0 C0.99 0.99 1.98 1.98 3 3 C2.34 4.98 1.68 6.96 1 9 C0.67 9 0.34 9 0 9 C0 6.69 0 4.38 0 2 C-0.66 1.67 -1.32 1.34 -2 1 C-1.34 0.67 -0.68 0.34 0 0 Z " fill="#C39970" transform="translate(29,45)"/>
<path d="M0 0 C0.66 1.32 1.32 2.64 2 4 C0.35 4.33 -1.3 4.66 -3 5 C-2.625 3.0625 -2.625 3.0625 -2 1 C-1.34 0.67 -0.68 0.34 0 0 Z " fill="#9D7748" transform="translate(47,35)"/>
<path d="M0 0 C0.66 1.32 1.32 2.64 2 4 C1.01 4.33 0.02 4.66 -1 5 C-2.20882096 7.00016466 -2.20882096 7.00016466 -3 9 C-3 6.69 -3 4.38 -3 2 C-2.01 2 -1.02 2 0 2 C0 1.34 0 0.68 0 0 Z " fill="#BD9967" transform="translate(3,29)"/>
<path d="M0 0 C0.66 0.33 1.32 0.66 2 1 C1.67 1.66 1.34 2.32 1 3 C1.99 3 2.98 3 4 3 C4 3.66 4 4.32 4 5 C2.35 5.33 0.7 5.66 -1 6 C-0.67 4.02 -0.34 2.04 0 0 Z " fill="#A98156" transform="translate(28,32)"/>
</svg>
